<?xml version="1.0" encoding="utf-8"?>
<!-- Generator: Adobe Illustrator 26.5.0, SVG Export Plug-In . SVG Version: 6.00 Build 0)  -->
<svg version="1.1" id="Layer_2_00000052783421750743775790000011910395498278438801_"
	 xmlns="http://www.w3.org/2000/svg" xmlns:xlink="http://www.w3.org/1999/xlink" x="0px" y="0px" viewBox="0 0 750 500"
	 style="enable-background:new 0 0 750 500;" xml:space="preserve">
<style type="text/css">
	.st0{opacity:5.000000e-02;}
	.st1{fill:none;stroke:#F5FBFA;stroke-linecap:round;stroke-linejoin:round;}
	.st2{clip-path:url(#SVGID_00000118388977578680817980000017247228503374036383_);}
</style>
<g id="OBJECTS" class="st0">
	<g>
		<g>
			<g>
				<path class="st1" d="M316.4,290.5c-9.1,10-30.1,49.8-38.3,67c5.1-41.8,28.9-75.3-7.3-106.2c-11.3-9.6-21-5-26.6-14.5
					c-7.4-12.7,6.4-13.5,11.9-20c2.9-3.4,1.5-10,5.7-11.5c2.7-1,6,1.2,8.4-0.4c2.7-1.8,1.9-7.3,5.1-8c2.3-0.5,4.3,2.3,6.6,1.9
					c1.6-0.3,2.5-1.9,4-2.6c2.3-1.2,5.2,0.6,6.4,2.9c1.3,2.8-0.2,52.1,11.6,47.6c11.3-4.3-5.4-31.2-1.7-44.2
					c2.3-7.9,9.4-10.4,13.6-7.2c2,1.5,4.5,6.3,11.6-0.8c7-7,9.8-3.5,12.4,2.4c3.1,7,7.4,2.6,7.9,2.3c3.8-2.1,11.4,1.8,7.8,12.4
					c-4.6,13.7-19.3,21.5-25.7,34.4c-3.7,7.5,1.5,13.1,8.2,6.7c9.4-8.9,13.9-34.1,29.6-34.9c9.6-0.5,6.7,8.9,10.9,10.4
					c3.5,1.3,9.6-6.3,12.4,3.4c0.7,2.4,0.8,5.1,1.9,7.3c0.8,1.7,8,8.6,0,16.7C379.2,269.8,330.9,274.6,316.4,290.5L316.4,290.5z"/>
				<path class="st1" d="M327.5,205c0.7,31.7-36.9,97.9-49.4,152.5"/>
				<path class="st1" d="M381.4,237.5c-21.5,26.3-59.2,34-82.9,58.4c3.1-23.6-4.7-54.3-32.5-76.8"/>
				<path class="st1" d="M252.9,227.5c3.6-1.2,7.4-1.6,11.2-1.2"/>
				<path class="st1" d="M252.8,235.3c4.6-0.9,9.2-1.4,13.8-1.4c3.1,0,6.5,0.3,8.9,2.4"/>
				<path class="st1" d="M263,241.6c5.9,0.1,11.9,1,17.5,2.9"/>
				<path class="st1" d="M274.9,250.6c4.3-0.3,8.6,1.1,11.9,3.8"/>
				<path class="st1" d="M282.6,258.1c2.8,1.1,5.4,2.4,8,4"/>
				<path class="st1" d="M287.5,266.2c1.9,0.7,3.7,1.9,5.2,3.3"/>
				<path class="st1" d="M291.3,275l3.2,1.7"/>
				<path class="st1" d="M275.8,208.9c-1,4.4-0.9,9,0.5,13.3"/>
				<path class="st1" d="M285.4,204.6c-3.5,6.9-4.5,15-2.8,22.5"/>
				<path class="st1" d="M288.9,214.6c-1.7,6.8-2.1,14-1.1,21"/>
				<path class="st1" d="M292.3,238c-0.4,1.7-0.4,3.5,0.1,5.2"/>
				<path class="st1" d="M312.9,201.4c4.4,3.5,7.4,8.7,8.2,14.2"/>
				<path class="st1" d="M308.8,208.2c4.9,5.3,8.3,11.9,9.7,18.9"/>
				<path class="st1" d="M308.4,223.7c3.1,3.7,5.1,8.4,5.6,13.3"/>
				<path class="st1" d="M310.6,246c0.7,1.5,1.1,3.2,1,4.9"/>
				<path class="st1" d="M305.3,252.3c1.3,3.2,1.9,6.7,1.7,10.1"/>
				<path class="st1" d="M300,259.3c2,4.5,2.7,9.5,2.2,14.3"/>
				<path class="st1" d="M331.8,211.8c3.1-2.2,6.5-3.9,10.1-5"/>
				<path class="st1" d="M328.9,225c3.2-5.7,9.6-8.8,15.6-11.4"/>
				<path class="st1" d="M325.4,236.6c-0.2-1.4,1.1-2.6,2.2-3.4c4.8-3.4,10-6.4,15.4-8.8"/>
				<path class="st1" d="M320.3,249.2c2-2.7,4.6-4.9,7.7-6.3"/>
				<path class="st1" d="M316.6,261.7c1-2.6,3.4-4.7,6.2-5.4"/>
				<path class="st1" d="M312.2,272.9c0.1-1.2,1.2-2,2.2-2.6c2.9-1.8,5.8-3.6,8.7-5.4"/>
				<path class="st1" d="M371,225.8c1.4,5.6,1,11.7-1.1,17.1"/>
				<path class="st1" d="M362,227.1c2.5,7.3,1.9,15.6-1.5,22.4"/>
				<path class="st1" d="M355.3,233.1c0.8,7.6-0.6,15.3-4,22.1"/>
				<path class="st1" d="M346.2,247.4c-0.1,4.6-1.1,9.1-2.9,13.3"/>
				<path class="st1" d="M337.1,258.3c0.1,2.2-0.4,4.4-1.4,6.3"/>
				<path class="st1" d="M329.7,261.8c-0.6,2.8-1.6,5.6-3.1,8"/>
				<path class="st1" d="M333.2,275c2.3,0.1,4.7,0.3,7,0.4"/>
				<path class="st1" d="M341.9,269.6c2.7-0.3,5.5,0,8,0.9"/>
				<path class="st1" d="M351.7,265.5c4.2-0.5,8.5-0.1,12.6,1.2"/>
				<path class="st1" d="M361.2,260.4c4.1-0.2,8.3,0.3,12.2,1.4"/>
				<path class="st1" d="M369.6,254.5c4.9-0.3,9.9,0.3,14.7,1.7"/>
				<path class="st1" d="M376.5,249.3c4.4-0.3,8.9-0.2,13.3,0.2"/>
				<path class="st1" d="M309.1,281.3c2.6-2.4,5.8-4.2,9.1-5.1"/>
				<path class="st1" d="M293.1,282c1.5,1.4,2.3,3.3,2.4,5.3"/>
				<path class="st1" d="M322.4,281c1.2-0.3,2.3-0.7,3.5-1"/>
			</g>
			<g>
				<path class="st1" d="M218.9,322c-5.2-4-8.1-12.2-3.8-17.2c1.9-2.2,5.1-3.7,5.8-6.6c1.1-4.7-7.2-12.4-1.4-18.6
					c2.7-2.9,7.8-3.2,9.7-6.6c1.6-2.8,0.3-6.3,1.1-9.4c1.4-5.9,9-7.7,12.9-3c1.6,1.9,2.7,5,5.3,5c2,0,3.3-1.9,4.8-3.2
					c9.5-8.1,31.1,2.1,21.4,73.1c-2.4,17.5-2.8,30.1-10.1,46.3c-1.7,3.7-3.7,8.2-6.9,12.4c2-9.4,4.1-17.1,5.1-25.8
					C267.2,327.8,232.6,332.5,218.9,322L218.9,322z"/>
				<path class="st1" d="M234.8,283c25.7,21.6,42.3,67.2,22.8,111.2"/>
				<path class="st1" d="M243.2,271c1.8,3.2,2.8,6.8,2.9,10.4"/>
				<path class="st1" d="M252.7,271.2c1.8,6.8,2.2,14,1.4,21"/>
				<path class="st1" d="M261.1,270.1c3.5,11,3.7,23,0.7,34.1"/>
				<path class="st1" d="M270.6,281.4c2,3.6,1.7,8,1.3,12.1c-1,9.2-2.9,18.3-5.6,27.1"/>
				<path class="st1" d="M272.8,318.3c-1.5,5.1-3.1,10.2-4.7,15.4"/>
				<path class="st1" d="M223.7,288.1c3.9,3.8,8.8,6.5,14.1,7.8"/>
				<path class="st1" d="M227,300.2c5.7,3.6,12.4,5.6,19.2,5.9"/>
				<path class="st1" d="M225,310.2c8.2,5.6,18.2,8.6,28.2,8.4"/>
				<path class="st1" d="M232.1,322.1c7.1,3.9,16.5,4.4,24.5,5.7"/>
				<path class="st1" d="M256,336c1.8,0,3.6,0.5,5.2,1.4"/>
			</g>
			<g>
				<path class="st1" d="M310.3,315.4c25.1-30.3,46.4-24.4,44.7-13.9c-0.4,2.7-2.6,5.8-0.6,7.8c1,1,2.5,1,3.8,1.4
					c4.2,1.3,5,8.1,1.3,10.5c0.7,3.1,6.1,2.7,7.1,5.8c1,3.3-4.5,6.1-3.3,9.3c0.5,1.4,2.1,2,3.3,2.9c4.3,3.1,3.8,10.9-1,13.2
					c-5.5,2.8-18.9-2.3-22.9-5.6c-3.2-2.6-7.9-11-20.6-7.8c-25.8,6.4-34.8,21.2-46.2,40.4C282.7,355.5,294.6,334.3,310.3,315.4
					L310.3,315.4z"/>
				<path class="st1" d="M354,320.3c-23-4.1-62,15.8-78.1,59"/>
				<path class="st1" d="M298.5,339.3c1.4-2.4,2.1-5.2,2.1-8"/>
				<path class="st1" d="M304.6,334.2c1.7-3.6,3-7.4,4-11.3"/>
				<path class="st1" d="M311.8,327.8c3.1-5.2,5.3-11,6.5-17"/>
				<path class="st1" d="M320.3,322c3.3-5.7,6.2-11.6,8.8-17.7"/>
				<path class="st1" d="M327.5,320.3c4.5-5.7,8.3-11.9,11.4-18.4"/>
				<path class="st1" d="M337.7,316.5c4.3-3.9,8-8.5,10.6-13.6"/>
				<path class="st1" d="M346.8,315.9l3.8-2.6"/>
				<path class="st1" d="M307.7,339.6l3.7-0.5"/>
				<path class="st1" d="M314.2,335.1c2.8-0.5,5.9-0.1,8.4,1.3"/>
				<path class="st1" d="M322.2,330.3c4.4,0.5,8.7,2.3,12.1,5.2"/>
				<path class="st1" d="M331,327.9c6.3,1.1,11.9,5.5,14.4,11.3"/>
				<path class="st1" d="M341.3,326c5.1,2.5,9.6,6.2,12.9,10.9"/>
				<path class="st1" d="M351.5,325.6c3.3,0.9,6.3,3,8.4,5.7"/>
			</g>
			<g>
				<path class="st1" d="M392.5,265.2c16.6-14.9,35.6-11.4,54.9-18.2c3.9-1.4,21.5-10.9,27.2,0.6c3.4,7-3,14.6-4,21.4
					c-1.4,9.3,9.7,3.2,11,14.2c0.8,6.2-2.9,8.5,3.7,11.3c6.6,2.8,9.8,17.2-9,23.6c-22.6,7.6-38.7-3-51.5-8.5
					c-50.7-21.6-49.1,35.9-24,53.1C369.2,341,363.2,291.5,392.5,265.2L392.5,265.2z"/>
				<path class="st1" d="M465.4,279.9c-35.7-14.2-80.2,1.5-85.6,28.6c-1.4,7.2-4.8,33.9,21,54.2"/>
				<path class="st1" d="M452.9,270.6c3.7-4.5,8.7-7.9,14.2-9.6"/>
				<path class="st1" d="M445.5,271.1c4.6-8.3,11.5-15.3,19.7-19.9"/>
				<path class="st1" d="M456.9,247.5c-8.6,4.9-15.8,12.4-20.2,21.3"/>
				<path class="st1" d="M440.1,252.1c-5.5,5-9.8,11.5-12.3,18.5"/>
				<path class="st1" d="M430.1,255.2c-4.3,3.5-7.5,8.4-9.1,13.7"/>
				<path class="st1" d="M421.7,257c-4.3,4.4-7.3,10-8.5,16.1"/>
				<path class="st1" d="M412.7,259.7c-4.5,4.1-7.1,10.1-7,16.2"/>
				<path class="st1" d="M403.4,262.6c-3.6,4.9-5.8,10.9-6.1,17"/>
				<path class="st1" d="M394.2,267.4c-2.8,4.8-4.1,10.4-4,15.9"/>
				<path class="st1" d="M386.2,276.7c-1.7,4-2.5,8.4-2.5,12.7"/>
				<path class="st1" d="M379.4,290.3c-0.6,1.8-0.6,3.8,0.1,5.6"/>
				<path class="st1" d="M452.1,280.6c5.6,6.7,13.8,11.3,22.4,12.6"/>
				<path class="st1" d="M441.6,281.2c8,12.4,21.6,20.9,36.2,22.6"/>
				<path class="st1" d="M430.4,280.7c2.8,5.7,6.5,11,10.8,15.6c7.3,7.8,17.1,13.9,27.7,13.9"/>
				<path class="st1" d="M420.8,281.5c4.2,11.5,12.4,21.6,22.9,28.1"/>
				<path class="st1" d="M410.5,284.3c2.9,9.3,10.1,17.1,19.1,20.8"/>
				<path class="st1" d="M402.8,289.4c3.5,4.5,8,8.1,13.1,10.7"/>
				<path class="st1" d="M392,294.6c3.9,3.2,9,4.9,14,4.5"/>
				<path class="st1" d="M385.5,302.4c2.3,0.5,4.7,0.5,7,0"/>
				<path class="st1" d="M384.1,309.2c1.8,0.4,3.8-0.3,5.1-1.7"/>
				<path class="st1" d="M377,299.6c-0.5,2.5,0,5.2,1.2,7.5"/>
			</g>
			<g>
				<path class="st1" d="M481.2,347.9c-24.1-18.2-54.6-27.2-84.3-29.5c17.4,4.4,28.1,23.2,20.9,46c-1.7,5.5-4.9,10.4-5.8,16.1
					c-0.9,5.6,1.6,12.6,7.2,13.8c5.3,1.1,9-2.1,11.4,11.5c0.7,4,3.6,8.9,7.6,7.9c3.4-0.9,5.2-5.7,8.6-5.5c3.3,0.3,4.2,4.6,6.7,6.8
					c2.9,2.5,11.2,3.8,15.2-12c3.5-1,5.9,4.4,9.5,4.4c5.5,0,4.2-10.6,9.4-12.4c1.3-0.5,2.7-0.2,4-0.4
					C501.7,393,507.5,367.8,481.2,347.9L481.2,347.9z"/>
				<path class="st1" d="M397,318.4c43.9,8.6,65,44.8,73.2,73.4"/>
				<path class="st1" d="M454.2,402.3c4-6.3,6.9-13.3,8.2-20.6"/>
				<path class="st1" d="M440.6,404.5c8.9-8.4,14.6-20,15.7-32.2"/>
				<path class="st1" d="M436.2,397.8c4.7-6,8.5-12.7,11.4-19.7c1.9-4.6,3.4-9.8,2.1-14.6"/>
				<path class="st1" d="M428.9,389.1c1.6,0,2.8-1.4,3.8-2.8c6-8.5,9.8-18.6,11-28.9"/>
				<path class="st1" d="M420.8,384.2c10.7-10.5,16.7-25.4,16.3-40.4"/>
				<path class="st1" d="M421.4,372.8c7.4-9.7,11-22.3,9.9-34.5"/>
				<path class="st1" d="M423.7,334c2.3,6.9,2.4,14.5,0.4,21.5"/>
				<path class="st1" d="M470.4,377.4c5,4.1,11.3,6.4,17.7,6.6"/>
				<path class="st1" d="M467,368.2c7.6,3.9,16.2,6,24.7,6"/>
				<path class="st1" d="M460.6,358.2c7.9,4.7,17.5,6.4,26.5,4.8"/>
				<path class="st1" d="M453.6,349.5c8.3,3.7,17.6,5.2,26.6,4.3"/>
				<path class="st1" d="M447,340.2c6.7,5,16.1,6.1,23.8,2.8"/>
				<path class="st1" d="M440,334.1c4.9,1.7,10.2,2.3,15.4,1.8"/>
				<path class="st1" d="M431.7,328.1c2,0.2,4,0.3,6,0.5"/>
			</g>
			<g>
				<path class="st1" d="M420.1,242.2c-7.4,0.8-16.3-4.6-15.2-12c0.3-2,1.3-3.9,1-5.9c-0.6-4.5-6.3-5.8-10.2-8.1
					c-6.8-4-8.8-14.2-4.1-20.5c-10.1,3.3-16.9-10.5-8.2-16.5c1.8-1.3,4.1-1.9,5.6-3.5c2.9-3.2,1.4-8.3,3-12.2
					c3-7.1,13.5-6.3,20.3-2.7c21,11.3,32.9,36.8,55.6,44.1c12.1,3.9,18-8.3,3.1-19.9c-23.7-18.5-29.6-16.6-36.6-22.1
					c-4.6-3.7-9.4-7.7-11.7-13.2s-1.3-12.8,3.8-15.9c1.4-0.8,3-1.3,4.2-2.4c5.6-4.8,2.6-26.2,23.8-15.7c13.5,6.7,12.7-5.8,23.5-8.4
					c6.2-1.5,14.3,5.1,19.7-0.7c2.2-2.3,4.7-13.8,12.8-12.6c13.8,2.1,9.1,38.1,2.7,56.5c-10,28.9-17.5,34.9-17.6,41.7
					c-0.1,3.7,3.2,8.7,9.2,4.1c21.4-16.2,16.8-55.9,43.9-64.9c8.8-2.9,6.9,7.4,10.8,11.4c5.7,5.8,16.1-4.3,23.3-0.4
					c8.8,4.7,1.4,23.4,11.1,25.9c2.8,0.8,5.7-0.6,8.6-0.7c16-0.8,23.1,29.6-3.7,45.1c-33.4,19.3-71.4-3-98,40.4
					c-6.2,10.2-6,21.3-7.6,34.2c-16.6-18.4,10.6-40.9-14.2-52.9C449.5,220,434.7,240.6,420.1,242.2L420.1,242.2z"/>
				<path class="st1" d="M469.8,126.8c13,13.8,16.5,27.8,19.1,46.3c12.2,85.2-2.5,92.5,4.5,114.4"/>
				<path class="st1" d="M575.6,156.1c-12.3,43.8-64.8,56-81.6,76.5c-23.6-26.4-64.7-8.3-90.5-46.4"/>
				<path class="st1" d="M482,113.6c0.7,4.8-0.1,9.7-2.4,14"/>
				<path class="st1" d="M490.8,115.1c-0.4,6.3-2,12.4-4.7,18.1"/>
				<path class="st1" d="M502.8,109c-0.9,11.7-5.5,23-13,32"/>
				<path class="st1" d="M512.8,104.8c-1.2,15.8-7.5,31.2-17.8,43.3"/>
				<path class="st1" d="M513.9,129.1c-3.5,12.4-9.6,24.1-17.9,34"/>
				<path class="st1" d="M448.8,123.1c5.5,6.6,12.9,11.4,21.1,13.9"/>
				<path class="st1" d="M441.7,127.3c7.6,10.9,19.7,18.6,32.8,20.8"/>
				<path class="st1" d="M437.8,138.9c-0.5,1.6,0.9,3.1,2.2,4.1c10.2,8,22.6,13.2,35.4,14.7"/>
				<path class="st1" d="M434.7,150.4c12.6,10.9,28.2,18.2,44.6,20.9"/>
				<path class="st1" d="M470.3,176.3c4.5,2.7,9.4,4.6,14.5,5.8"/>
				<path class="st1" d="M495.5,177.5c2.6-2.8,4.8-5.9,6.5-9.3"/>
				<path class="st1" d="M404.5,166.5c7.1,8.2,11.8,18.5,13.5,29.2"/>
				<path class="st1" d="M416.4,169.5c6.7,9.2,10.6,20.4,11,31.8"/>
				<path class="st1" d="M430,181.6c4.7,6.8,7.2,15.1,7.2,23.4"/>
				<path class="st1" d="M443.9,195.2c2.1,3.2,3.4,7,3.6,10.8"/>
				<path class="st1" d="M399.6,170.4c3.1,2.6,5.3,6.1,6.4,9.9"/>
				<path class="st1" d="M454.5,204c0.9,0.6,1.5,1.4,1.8,2.4"/>
				<path class="st1" d="M395.8,205.1c4.6-0.3,9.2-1.3,13.5-2.9"/>
				<path class="st1" d="M399.5,210.7c5.1-0.1,10.1-1.6,14.4-4.4"/>
				<path class="st1" d="M407.9,216.5c6-0.3,11.9-2.8,16.3-6.9"/>
				<path class="st1" d="M414,223.9c6.6-0.6,13-2.9,18.6-6.4"/>
				<path class="st1" d="M421,233.1c8.2-3.5,15.9-8.4,22.7-14.2"/>
				<path class="st1" d="M439.6,229.7c5.3-2.3,10.2-5.4,14.5-9.2"/>
				<path class="st1" d="M395.3,194.8c3,0.9,6.4,0.4,8.9-1.4"/>
				<path class="st1" d="M387.8,185.5c2.7,1.4,5.8,2,8.9,1.8"/>
				<path class="st1" d="M457.3,225.1c2.2-0.8,4.4-1.6,6.5-2.3"/>
				<path class="st1" d="M465.8,207.7c1.4,2,2.3,4.2,2.6,6.6"/>
				<path class="st1" d="M475.9,209.2c1.1,1.5,1.7,3.3,1.9,5.1"/>
				<path class="st1" d="M483.5,206.4c1.8,3.1,2.9,6.7,3.1,10.3"/>
				<path class="st1" d="M470.8,227.4c2.2,0,4.5-0.5,6.5-1.4"/>
				<path class="st1" d="M480.1,231.6c1.4-0.4,2.8-0.9,4.2-1.4"/>
				<path class="st1" d="M482.9,188.8c1,1.4,2.6,2.3,4.3,2.7"/>
				<path class="st1" d="M567.9,149.9c-3,6.8-4.4,14.2-4.3,21.6"/>
				<path class="st1" d="M558.2,147.2c-3.1,9.6-4.5,19.8-3.9,29.9"/>
				<path class="st1" d="M547.5,139.2c-5.2,13.9-5.8,29.5-1.9,43.8"/>
				<path class="st1" d="M537.8,146.3c-4.2,14.7-4.6,30.4-1.2,45.2"/>
				<path class="st1" d="M528.8,165.8c-2,11.6-1.6,23.6,1.2,35"/>
				<path class="st1" d="M522,181.2c-1.4,1.6-1.5,3.9-1.5,5.9c0,5.8,0.2,11.6,0.7,17.4"/>
				<path class="st1" d="M513.6,194.7c-2,5-2.6,10.6-1.7,15.9"/>
				<path class="st1" d="M505.1,203.1c-0.7,3.9-0.8,7.8-0.2,11.7"/>
				<path class="st1" d="M499.7,204.6c-1.2,4.4-1,9.2,0.4,13.5"/>
				<path class="st1" d="M573.3,172c4-0.9,7.9-2.7,11.2-5.2"/>
				<path class="st1" d="M571,180.4c7.9-1.6,15.6-4.3,22.8-8"/>
				<path class="st1" d="M566.4,187.2c13.9,2.3,28.7-0.6,40.7-8.1"/>
				<path class="st1" d="M555.6,195.1c16,3.3,33,1.7,48.1-4.6"/>
				<path class="st1" d="M549.9,202.4c3,2.4,7,3.1,10.8,3.6c12.3,1.5,24.8,0.9,36.9-1.8"/>
				<path class="st1" d="M540.2,207.4c1.8,2.7,4.8,4.3,7.8,5.5c9,3.6,19,4.7,28.7,3.2"/>
				<path class="st1" d="M529.3,213.5c2.1,2.8,5.4,4.6,8.8,5.4s7,0.7,10.5,0.6"/>
				<path class="st1" d="M520.2,218.6c2.6,1.9,5.4,3.4,8.4,4.6"/>
				<path class="st1" d="M512.7,224.2c3.2,1.5,6.9,1.8,10.3,0.8"/>
				<path class="st1" d="M503.3,231.9c3.5,1.3,7.5,1.2,10.8-0.4"/>
				<path class="st1" d="M499.2,240.4c2.2,0.2,4.5-0.3,6.5-1.4"/>
			</g>
			<g>
				<path class="st1" d="M332.2,182.5c-18.6-0.1-37.1,7.2-46.5,4.5c-7.6-2.2-9.7-9.5-6.9-12.5c2.7-2.9,8.4-0.8,10.9-3.8
					c4.3-5.3-7.7-12.3-3.7-17.7c2.8-3.7,8.8,0,13.4-1.1c2-0.5,2.2-1.8,1.2-3.6c-4.6-8.2-1.9-13.8,7.9-7.7c2.6,1.7,7.3,1.9,7.8-1.2
					c0.1-0.9-0.2-1.8-0.2-2.7c0.1-2.6,3.9-6.5,11.1-0.9c7.8,6.1,6.3-7.7,11.5-7.1c3.3,0.4,3.2,6.5,6.6,7c4.6,0.7,5-10.5,9.7-7.9
					c2.2,1.2,2.6,9.2,6.5,3.2c1.9-2.9,6.8-1.6,8.5,1.5c3.6,6.8-9.8,50.6,11.2,77.6C366.6,199.3,351.5,182.5,332.2,182.5L332.2,182.5
					z"/>
				<path class="st1" d="M316.7,148.5c26.1,9.1,47.5,42,64.5,61.5"/>
				<path class="st1" d="M324.1,138.7c2.8,2.6,4.6,6.3,4.9,10.1"/>
				<path class="st1" d="M331.5,140.5c2,3.2,3.1,7,3.2,10.8"/>
				<path class="st1" d="M337.5,138c2.9,5.7,4.4,12.1,4.4,18.6"/>
				<path class="st1" d="M345.5,139.8c3.2,6.9,4.3,14.8,3,22.4"/>
				<path class="st1" d="M353.5,137c2.6,10,3.2,20.5,1.6,30.8"/>
				<path class="st1" d="M363.6,137.2c0.1,13.9-2.6,28,0.2,41.6"/>
				<path class="st1" d="M295.5,156.8c4.4,2.5,9.5,3.3,14.5,3.1c5-0.2,9.9-1.3,14.8-2.4"/>
				<path class="st1" d="M296.9,165.3c12.3,3.3,25.5,3.3,37.7-0.1"/>
				<path class="st1" d="M306.4,153.2c3.5,1.3,7.5,1.6,11.1,0.6"/>
				<path class="st1" d="M294.4,173.7c3.1,2.3,7.2,2.5,11,2.5c12.1-0.1,24.3-1.4,36.1-4"/>
				<path class="st1" d="M286.3,179.7c6.2,2.5,13.1,3.2,19.6,1.9"/>
				<path class="st1" d="M336.4,179.2c3.5-0.6,7.1-0.5,10.5,0.4"/>
			</g>
			<g>
				<path class="st1" d="M205.5,200.6c-2.4-1.6-4.2-5.3-1.9-6.8c1.2-0.7,2.9-0.4,3.8-1.4c2.4-2.5-2.3-5.1-3.1-7.3
					c-1.1-3,3.6-6,5.8-3.7c-9.2-9.2,5.7-18.1,18.7,4.3c2.4,4.1,4.7,8.4,8.3,11.5c1.6-3.5,0.5-7.6-0.4-11.4
					c-11.5-44.8,8.3-36.3,9.2-31.9c2.4-0.8,3.3-3.6,4.5-5.9c1.2-2.2,4-4.3,6-2.8c1.8,1.4,1.7,5.2,4,5.3c2.2,0.1,2.5-3.3,4.4-4.5
					c1.7-1.1,4.5-0.5,6.3,5c4.7-4.4,8.2-0.4,8.4,4.9C280,167,266.4,178.3,256,195c-4.4,7.1-23.7,38.9-17.9,44.8
					c-6.1-6.1-2.7-16.2-4.8-23.9C230.3,204.3,214,206.2,205.5,200.6L205.5,200.6z"/>
				<path class="st1" d="M256,155.1c5.1,15.8-27,76-17.9,84.8"/>
				<path class="st1" d="M216.1,185.2c3.1,3.4,20.4,13.4,22.8,35.5"/>
				<path class="st1" d="M208.4,197.8c3.4-3.1,8.4-4.4,12.8-3.4"/>
				<path class="st1" d="M214.2,199.7c3.6-1.3,7.6-1.6,11.4-0.8"/>
				<path class="st1" d="M220.2,202.5c2.6-0.2,5.1-0.1,7.7,0.2"/>
				<path class="st1" d="M227,205.6c1.6-0.4,3.3-0.1,4.6,0.8"/>
				<path class="st1" d="M216.9,177.1c2.6,2.9,4.6,6.3,5.9,10"/>
				<path class="st1" d="M222.8,180.5c0.7,0.5,1.1,1.3,1.4,2c1.2,2.7,2.1,5.6,2.7,8.5"/>
				<path class="st1" d="M229.4,191.1c0.6,0.9,1,2,1.2,3.1"/>
				<path class="st1" d="M233.6,196.4c0.5,1.1,0.8,2.3,0.8,3.5"/>
				<path class="st1" d="M240.9,196.6c0.5,1,1.2,1.9,1.9,2.8"/>
				<path class="st1" d="M238.6,183c1.2,3.7,3.1,7.2,5.5,10.3"/>
				<path class="st1" d="M236.6,169.5c1.7,6,4.6,11.6,8.7,16.4"/>
				<path class="st1" d="M238.4,159.7c2.4,6.9,4.9,14,9.2,19.9"/>
				<path class="st1" d="M244.7,156.9c1,5.1,2.8,10.1,5.3,14.7"/>
				<path class="st1" d="M250,155.3c0.4,2.4,1,4.8,1.8,7.1"/>
				<path class="st1" d="M263.7,153.4c-0.9,4.5-2.7,8.8-5.3,12.6"/>
				<path class="st1" d="M270.9,155.5c-3,6.1-7.1,11.7-12.1,16.4"/>
				<path class="st1" d="M274.8,161.5c-1.7,3.9-4.7,7.1-7.9,10s-6.7,5.4-9.7,8.4"/>
				<path class="st1" d="M252.7,187.6c3.8-1.6,7.3-3.9,10.2-6.8"/>
				<path class="st1" d="M249.9,195.1c2.3-0.9,4.4-2.3,6.2-4"/>
				<path class="st1" d="M248.3,200.7c1.3-0.6,2.4-1.4,3.4-2.4"/>
				<path class="st1" d="M238.6,201c0.5,1.6,1.2,3.1,2.2,4.5"/>
				<path class="st1" d="M245.7,206.9c1.1-0.5,2.1-1.3,2.8-2.3"/>
			</g>
			<g>
				<path class="st1" d="M197.2,350.4c51.4,6.5,55.6,66.7,60.5,77c-18.2-38.6-33-21.8-47.7-15.9c-11,4.4-34.6,6.5-33.3-6.2
					c0.3-3,2.6-5.9,1.7-8.8c-1.3-4.2-8.5-5.1-8.6-9.5c-0.1-3.8,5.1-5.4,6.5-8.8c2.2-5.2-5.6-12.9-0.3-16.7c2.8-2,7.6,0.2,9.9-2.4
					C188.1,356.6,185.8,349,197.2,350.4z"/>
				<path class="st1" d="M186.8,375.4c30.4-1,58.8,13.5,70.9,52.1"/>
				<path class="st1" d="M184.7,363.8c3.8,0.2,7.4,2.8,8.7,6.3"/>
				<path class="st1" d="M192,359c4.8,2.4,8.8,6.5,11,11.4"/>
				<path class="st1" d="M197.6,354.4c6.6,4.4,11.5,11.2,13.6,18.9"/>
				<path class="st1" d="M209.8,357.5c6.2,4.6,10.1,12.2,10.2,19.9"/>
				<path class="st1" d="M221.3,363.5c4,5,6.4,11.3,6.8,17.7"/>
				<path class="st1" d="M231.5,372.2c2.8,3.4,4.5,7.8,4.6,12.2"/>
				<path class="st1" d="M240.6,384.4c0.6,1.8,0.9,3.7,0.7,5.6"/>
				<path class="st1" d="M179.1,388.7c6.3,0,12.6-2.3,17.4-6.4"/>
				<path class="st1" d="M184.3,394.8c8.3-2,16.2-6,22.8-11.4"/>
				<path class="st1" d="M185.7,402.6c0.1,0,0.1,0,0.2,0c10.5-2.9,20.3-8.5,28-16.1"/>
				<path class="st1" d="M194.1,407.5c3.1,0.1,6.1-1.2,8.8-2.6c6.6-3.5,12.6-8.1,17.7-13.5"/>
				<path class="st1" d="M212.3,405.4c6.9-2.8,13.2-7.1,18.2-12.6"/>
				<path class="st1" d="M228.4,400.2c1.9-0.9,3.7-1.8,5.6-2.8"/>
				<path class="st1" d="M236.7,401.1c1.1-0.4,2.4-0.4,3.5-0.2"/>
				<path class="st1" d="M244.5,393.5c0.2,1,0.4,2.1,0.7,3.1"/>
			</g>
			<g>
				<path class="st1" d="M211.5,277.8c-8.4,14.4-14.1,36.7-0.8,47.1c18,14,42.4,29.1,42.2,51.7c-16.4-36-75.1-66.1-90.3-27.1
					c-2.5,6.4-5.2,44.1-31.5,45.7c-12.7,0.8-5.6-14.9-12.6-19.5c-4.4-2.9-11.1,1.1-15.4-2c-5.5-4-0.2-12.6-1.2-19.3
					c-1-6.6-9.6-14,4.8-19.6c40.6-15.7,72.1-5.8,60.6-13.1c-14.6-9.3-53.4,2.5-66.7-1.9c-5.7-1.9-10.5-8.1-8.6-13.8
					c1.4-4.1,4.8-6.7,0.3-10.8c-4-3.6-9.9-4.8-8.7-11.1c0.9-5,5.8-7.7,7.7-12.2c2.3-5.6-0.5-12.9,3.6-17.3c2.2-2.4,5.8-3,8.5-4.9
					c5.4-3.8,10.3-23.1,28.4-3.8c7.8,8.4,14.8,17.7,22.6,26.1c23.1,24.9,18.5,29.4,25.6,35.2c2.1,1.7,3.6,0.4,3.6-2
					c0.4-12.7-25.4-38.7-21.3-63c1.4-8.5,8.3-16.6,16.9-16.5c3.6,0.1,7.4,1.6,10.8,0.3c7.3-2.6,5.2-12.2,11-15.6
					c2.2-1.2,5-1.2,7.1,0.1c5.9,3.8,1.5,7.2,14.2,9.1c12.4,1.8,5.4,12.9,5.8,16.6c0.6,4.9,8.9,7.7-3.2,23
					C220.1,265,215.4,271.2,211.5,277.8L211.5,277.8z"/>
				<path class="st1" d="M112.8,266.9c34.8,47.5,119.1,51.8,140.1,109.7"/>
				<path class="st1" d="M206.3,227.7c-34.4,26.5-10.4,80-4.9,97.2c-19.3-6.7-57.7,12.5-74.1,39.3"/>
				<path class="st1" d="M198.7,222.7c-1.4,2.4-2.4,5.1-2.8,7.9"/>
				<path class="st1" d="M190.2,228.8c-0.6,2.6-0.4,5.4,0.5,7.9"/>
				<path class="st1" d="M183.8,231.1c-0.9,4,0.5,8.5,3.6,11.3"/>
				<path class="st1" d="M175.6,232.5c0.4,6.6,3,13.1,7.2,18.1"/>
				<path class="st1" d="M168.9,238.1c0.7,8.2,5,16.1,11.5,21.1"/>
				<path class="st1" d="M167.5,252c1.7,3.9,3.4,7.9,5.8,11.4s5.9,6.5,9.9,7.7"/>
				<path class="st1" d="M173.4,271.2c2.6,4.4,6.4,8.1,10.8,10.7"/>
				<path class="st1" d="M179.6,285.6c2.2,1.7,4.4,3.4,6.5,5.1"/>
				<path class="st1" d="M185.5,297.4c1.1,0.9,2.2,1.8,3.3,2.7"/>
				<path class="st1" d="M205.2,235.2c5.8-1.1,11.1-4.4,14.6-9.2"/>
				<path class="st1" d="M198.7,246.3c6.8-1.6,13.3-5,18.6-9.6"/>
				<path class="st1" d="M196.3,257.6c8.6-2.7,16.4-7.7,22.4-14.3"/>
				<path class="st1" d="M193.5,268.4c-0.5,0.1,0.3,0.7,0.8,0.6c10.2-3.5,19.4-10,26.2-18.5"/>
				<path class="st1" d="M194.1,280.3c6.9-3,13.2-7.4,18.5-12.9"/>
				<path class="st1" d="M196.4,288.5c2.9-1.3,5.3-3.4,6.9-6.1"/>
				<path class="st1" d="M197.8,295.6c2-1.2,3.6-3.1,4.5-5.3"/>
				<path class="st1" d="M111.6,250.6c5.2,1.9,8,7.5,9.9,12.7c1.3,3.4,2.4,6.8,3.4,10.3"/>
				<path class="st1" d="M120.1,246.3c8.9,9.4,14.9,21.5,17.1,34.2"/>
				<path class="st1" d="M134.7,255.6c6.3,10.4,10.8,21.9,13.3,33.7"/>
				<path class="st1" d="M147.9,271.5c1,0.4,1.5,1.4,2,2.3c3.9,7.6,6.6,15.9,7.8,24.4"/>
				<path class="st1" d="M161.2,286.9c2.6,4.5,4.4,9.5,5.2,14.6"/>
				<path class="st1" d="M187.9,305.7l4.7,4.7"/>
				<path class="st1" d="M170.7,296.8c0.6,1.9,1.2,3.7,1.9,5.6"/>
				<path class="st1" d="M96.6,274.4c5.3,4,12.7,5.3,19.1,3.3"/>
				<path class="st1" d="M93.2,284c9.9,3.3,20.7,3.7,30.8,1"/>
				<path class="st1" d="M100.3,295.5c1.2,1.2,3,1.3,4.6,1.4c8.6,0.1,17.2-1.4,25.2-4.2"/>
				<path class="st1" d="M102.6,306.8c0.2,1.2,1.8,1.3,3,1.1c11.4-1.8,22.7-4.5,33.7-7.9"/>
				<path class="st1" d="M116.2,314.8c11.1-0.9,22.1-3.9,32.1-8.7"/>
				<path class="st1" d="M145.6,312.7c4.7-1.1,9.3-2.2,14-3.3"/>
				<path class="st1" d="M160.4,315.5c3.9-0.5,7.8-0.9,11.6-1.4"/>
				<path class="st1" d="M173.9,320.1c1.9-1,4-1.4,6.1-1.3"/>
				<path class="st1" d="M110.1,361c4.9-2.8,10.3-4.6,15.9-5.5"/>
				<path class="st1" d="M107.6,351c4-1.4,8.1-2.8,12.3-3.3c4.2-0.5,8.6-0.1,12.4,1.9"/>
				<path class="st1" d="M107.7,341c8.6-2.5,17.8-3,26.6-1.3"/>
				<path class="st1" d="M126.9,332.6c6.6-2,14.1-0.8,19.7,3.1"/>
				<path class="st1" d="M147.4,329c2.2-0.2,4.5,0.3,6.5,1.4"/>
				<path class="st1" d="M131.9,381.8c4.5-8.3,7.5-17.4,9-26.7"/>
				<path class="st1" d="M141.3,384.2c5.3-10.6,8.3-22.4,8.7-34.2"/>
				<path class="st1" d="M153.7,366.8c1.5-7.7,2.6-15.5,3.4-23.4"/>
				<path class="st1" d="M162.3,343.9c-0.3-3.7,0.9-7.4,3.3-10.2"/>
				<path class="st1" d="M170.7,334.1c0.5-1.5,1.5-2.8,2.8-3.7"/>
				<path class="st1" d="M181.9,328.9l2.3-0.9"/>
			</g>
			<g>
				<path class="st1" d="M159.4,229.8c-4.3,2.1-11.1,5.2-15.9,4.9c-3.6-0.2-7.4-3.1-7.2-6.7c0.1-3.3,3-7.1-2.3-8.4
					c-12.7-3-5.6-7.7-6.7-11.1c-0.4-1.3-4.1-3.4-4.8-5.3c-0.6-1.6,1.1-3.6,0.2-5.4c-1.1-2.3-9-4.5-2.7-12.4
					c8.6-10.6,29-5.9,41.1-7.8c17.4-2.8,25.7-15.6,25.9-32.7C205,180.9,188.8,215.6,159.4,229.8L159.4,229.8z"/>
				<path class="st1" d="M142,206c31.5-0.4,52.9-30.2,44.8-61"/>
				<path class="st1" d="M142,216.7c3.6-1.4,6.9-3.7,9.4-6.7"/>
				<path class="st1" d="M143.3,225.4c2-0.8,3.7-2.1,5.3-3.6c4.3-3.8,7.9-8.4,10.5-13.6"/>
				<path class="st1" d="M152.9,227.3c7.2-5.9,12.5-14.1,15.1-23"/>
				<path class="st1" d="M167.1,219.8c4.6-6.4,7.5-13.9,8.2-21.8"/>
				<path class="st1" d="M178.2,210.4c2.5-5.6,3.7-11.8,3.5-18"/>
				<path class="st1" d="M186,198.5c0.9-4.7,1.1-9.5,0.3-14.2"/>
				<path class="st1" d="M188.8,176.4c1.1,2.2,1.6,4.8,1.2,7.2"/>
				<path class="st1" d="M190.3,167.3c0.7,1.7,1.1,3.5,1.1,5.4"/>
				<path class="st1" d="M133,214c2.5-0.3,4.9-1.2,6.9-2.7"/>
				<path class="st1" d="M126.7,193.9c5.6,0.4,11.2,2.6,15.5,6.2"/>
				<path class="st1" d="M131.3,185.5c7.1,1.7,13.8,5.4,19,10.5"/>
				<path class="st1" d="M144.1,182.9c6,2.9,12.3,6.1,15.6,11.9"/>
				<path class="st1" d="M153.4,182c4.9,1.4,9.3,4.2,12.9,7.8"/>
				<path class="st1" d="M162.3,180.5c4.3,0.8,8.4,2.4,12.1,4.7"/>
				<path class="st1" d="M171,177.5c2.6,0.4,5.1,1,7.6,1.7"/>
				<path class="st1" d="M177.5,173.8c1.6,0.3,3.4,0.1,4.9-0.6"/>
				<path class="st1" d="M181.6,169.8c1.3-0.9,2.4-2,3.3-3.2"/>
			</g>
			<g>
				<path class="st1" d="M455,25.7c-14.8,22.4-10.7,54-30.3,73.9c-10.9,10.9-27.4,14.8-41.4,20.5c-13.7,5.6-11,13.5-1,13.2
					c-3.1,4.8-0.7,9.8,6.9,5.6c-1.8,6.4,1.7,8.6,3.9,8.1c1.8-0.4,2.9-2.5,4.6-3.1c-0.7,5.1,4.5,9,9.2,6.9c3.2-1.4,4.8-5,6.3-8.2
					c6.6-14.2,17.2-23.4,28.8-54.1c2-5.3,5.5-4.4,6.9-1.8c2.4,4.4-2.4,12.1,0.4,18c0.6,1.3,1.8,2.6,3.3,2.7c3.5,0.2,4.5-5.3,7.9-6.2
					c1.8,2.6,5.1,5.4,7.5,3.5c1.5-1.2,1.4-3.3,1.8-5.1c0.4-1.8,2.2-3.8,3.8-2.8c0.6,0.3,0.9,1,1.3,1.5c3,3.9,9.3,1.7,9.3-3.2
					c0-6-8.3-7.8-11.7-9.7C450.3,73.2,453,28.7,455,25.7L455,25.7z"/>
				<path class="st1" d="M400.3,133.8c41.8-39.6,45.1-68.2,54.7-108.1"/>
				<path class="st1" d="M462.2,92.3c-5.9-12.1-10.9-28-13.1-41.3"/>
				<path class="st1" d="M385.5,126.8c4.8,2.7,10.8,3,15.9,0.9"/>
				<path class="st1" d="M393.4,121.3c4.1,1.2,8.6,1,12.6-0.6"/>
				<path class="st1" d="M403.7,116c2,0.5,4.1,0.5,6-0.1"/>
				<path class="st1" d="M406.4,144c-0.9-4-0.5-8.3,1-12.1"/>
				<path class="st1" d="M412.1,136.1c-0.1-3.3,0.4-6.6,1.4-9.8"/>
				<path class="st1" d="M418,125.8c0.3-2,0.7-4,1-6.1"/>
				<path class="st1" d="M425,116.9c0.3-2,0.7-4,1-6.1"/>
				<path class="st1" d="M414.4,110.4c1.1,0.2,2.2,0,3.3-0.4"/>
				<path class="st1" d="M453.2,99.8c1.5-2.4,2.7-4.9,3.6-7.5"/>
				<path class="st1" d="M453.1,90.8l1.9-3.7"/>
				<path class="st1" d="M451.2,82.9c1.1-0.7,1.6-2,1.4-3.3"/>
				<path class="st1" d="M449,78.8c1-1.5,1.7-3.3,1.8-5.2"/>
				<path class="st1" d="M447.5,71.3c1-1.4,1.6-3,1.9-4.7"/>
				<path class="st1" d="M460.6,78.2c1.3,1.3,2.9,2.3,4.6,2.9"/>
				<path class="st1" d="M462.4,85.3c1.9,1.5,4.2,2.4,6.5,2.8"/>
				<path class="st1" d="M465.7,91.8c1.2,0.6,2.5,1.2,3.7,1.9"/>
				<path class="st1" d="M457.3,72.2l1.4,1.4"/>
			</g>
			<g>
				<path class="st1" d="M591.2,25.6c3.2-3.6,8.2-9.1,12.8-10.8c3.5-1.2,8-0.1,9.3,3.4c1.1,3.1,0,7.8,5.4,6.8
					c12.9-2.2,8.1,5,10.5,7.6c0.9,1,5.2,1.5,6.5,3c1.2,1.3,0.4,3.7,1.9,5.1c1.9,1.7,10.1,0.7,7.3,10.3c-6.3,22-38.7,3-55.2,58.6
					c-3.1,10.3-11,21.8-20.8,26.8c4.2-4.4,7.6-10,5.4-15.6c-4.9-12.8-22.6-2.2-30.3-9.3c-2.2-2.1-2.9-5.9-0.8-8.1
					c2.2-2.3,7.5-2.9,5.5-7c-1.2-2.5-8.3-6-3.2-9.7c1.1-0.8,2.7-0.8,3.8-1.7c3.7-2.9-1.3-8.3-1.1-11.9c0.2-2.4,2.4-4.6,4.9-4.6
					c1.5,0,3.2,0.6,4.4-0.3c1.7-1.2,1-4,2.1-5.8c1.4-2.1,4.8-1.6,6.8-0.1c10.4,8.1,1.4,33.9,12.7,45.8c1.8,1.9,4.1,2.3,5-0.7
					C586.4,99.2,570.6,49.2,591.2,25.6L591.2,25.6z"/>
				<path class="st1" d="M622.2,39.5c-26.4,5.6-29.1,42.6-33.5,58.6c-3.6,12.9-6.5,26.3-19.9,38.4"/>
				<path class="st1" d="M557.4,83.1c2.5,14.6,24,26.6,21.8,40.8"/>
				<path class="st1" d="M557.8,73c1.3,2.2,2.2,4.6,2.5,7.2"/>
				<path class="st1" d="M562.8,68c2,6.8,2.9,13.9,2.6,21"/>
				<path class="st1" d="M568.2,71.7c1.2,6.3,1.3,12.8,0.4,19.1"/>
				<path class="st1" d="M550,89.9c1.7,2.1,4.3,3.3,7,3.2"/>
				<path class="st1" d="M553.2,97.7c2.7,0.9,5.7,1.1,8.5,0.6"/>
				<path class="st1" d="M551.4,104.6c4.6,0.9,9.5,0.6,14-0.9"/>
				<path class="st1" d="M553.3,110.6c4.7,0.3,9.5-0.2,14-1.6"/>
				<path class="st1" d="M617.5,28.8c-1.9,2.2-3,5.1-3.1,8"/>
				<path class="st1" d="M611,26c-2.2,4.3-2.7,9.4-1.5,14"/>
				<path class="st1" d="M604.3,21.3c-2.8,7.8-3.1,16.4-0.8,24.4"/>
				<path class="st1" d="M597.3,26.9c-2.1,7.9-1.7,16.5,1,24.2"/>
				<path class="st1" d="M589.4,36.3c-1.5,7.8-0.3,16,3.4,23"/>
				<path class="st1" d="M584.6,52.6c0,6.1,2,12.2,5.8,17"/>
				<path class="st1" d="M584.1,70.3c0.7,3.3,2.3,6.4,4.6,8.9"/>
				<path class="st1" d="M615.7,46.3c6.2,0.6,12.5-1,17.7-4.5"/>
				<path class="st1" d="M611.5,52.3c7.2,2.6,15.6,2,22.4-1.6"/>
				<path class="st1" d="M604.5,58.3c9.1,3.3,19.5,2.9,28.4-1.1"/>
				<path class="st1" d="M601.7,66.4c3.7,1.1,7.7,0.8,11.2-0.8"/>
				<path class="st1" d="M599.4,74.1c2.2,0.1,4.5-0.4,6.5-1.4"/>
				<path class="st1" d="M596.7,82c1.1-0.6,2.2-1.3,3.2-1.9"/>
				<path class="st1" d="M586.5,83.3c0.6,1.2,1.2,2.5,1.8,3.8"/>
			</g>
			<g>
				<path class="st1" d="M566.3,374.2c-10.3,4.1-20.9,7.3-30.9,12.2c-15,7.3-25.4,20-40.3,27.8c22.1-23.5,39.6-36.6,16.3-59.2
					c-5.3-5.1-29.8-17.7-20.6-27.2c1.3-1.4,3.4-2.1,4.4-3.7c2.6-4.2-3.4-10.4-0.2-14.2c3.5-4.1,9.2-1.5,8.1-9
					c-0.8-5.3-6.6-8.5-2.8-14.5c5-7.7,16.8-2.6,20.8,3.3c9,13.3,6.1,32.6,16.5,44.9c11,12.9,14.6-31.9-11.6-54.5
					c-5.8-5-13.5-10.6-12.3-18.2c0.7-4.8,5.5-8.5,10.3-8c2.4,0.2,4.7,1.4,7,1.1c7.3-0.7,10.5-13.1,17.7-11.5c4.1,0.9,6,6.1,9.9,7.5
					c5.6,2,10.3-4.2,15.7-6.8c5.6-2.7,5.6,4.2,8.5,6.8c3.2,2.8,8.1-0.1,12.3,0.3c4.4,0.4,7.8,4.4,8.7,8.8
					c3.3,17-24.6,46.8-34.6,66.1c-3.2,6.2,1,9,5.9,5.1c11.8-9.4,27-32.4,32.6-46.5c1.5-3.6,5-18.1,14.9-16.7
					c9.9,1.5,8.2,16.1,11.4,18.1c2.2,1.3,4.9-0.9,7.5-0.7c3.8,0.2,5.2,5.2,5.1,9c-0.6,18.1,10.3,8.3,14.9,13.5
					c6.2,7-12.1,12.8-9,20.5c0.4,0.9,1,1.7,1.5,2.6c2.3,4.4-0.3,16.2-20.8,11.1C603.7,334.8,590.1,364.6,566.3,374.2L566.3,374.2z"
					/>
				<path class="st1" d="M559.7,258.4c10.2,57.8-17.1,121.4-64.6,155.7"/>
				<path class="st1" d="M506.8,317c20.2,11.1,29.7,35.9,25.7,58.6c34.1-15.9,65.5-38.5,91.1-66.1"/>
				<path class="st1" d="M508,292.4c4.5,6.5,7,14.3,7.4,22.2"/>
				<path class="st1" d="M516.3,292c5,9.5,7.4,20.2,7,30.9"/>
				<path class="st1" d="M500.9,320.3c2.9,4,7.8,6.4,12.8,6.2"/>
				<path class="st1" d="M499.1,331.1c7,2.9,14.5,4.4,22,4.4"/>
				<path class="st1" d="M500.1,337.4c1.1,2.1,3.5,3.2,5.7,3.9c5.2,1.7,10.8,2.5,16.3,2.1"/>
				<path class="st1" d="M512.7,348.7c3.9,2,8.3,3.1,12.6,3"/>
				<path class="st1" d="M529.9,327.1c0.7,3.2,1.3,6.5,2,9.8"/>
				<path class="st1" d="M537.5,340.6c0.9,2.2,1.2,4.6,0.8,7"/>
				<path class="st1" d="M520.2,358.3c2.2,1.2,4.5,2,7,2.3"/>
				<path class="st1" d="M546.7,252.6c1.3,6.4,5.3,12.3,10.8,15.8"/>
				<path class="st1" d="M539,257.8c3.9,9.5,10,18.1,17.7,24.9"/>
				<path class="st1" d="M529.6,264.2c7,11.1,15.5,21.4,25.1,30.4"/>
				<path class="st1" d="M532.7,278.2c6.9,9,14.2,17.7,21.9,26.1"/>
				<path class="st1" d="M547.2,306.6c1.6,3.3,3.8,6.3,6.5,8.9"/>
				<path class="st1" d="M549.5,320.2c0.7,2,1.3,4,2,6"/>
				<path class="st1" d="M544.5,340.6v2.8"/>
				<path class="st1" d="M566.4,267.1c4.7-3,8.3-7.5,10.2-12.7"/>
				<path class="st1" d="M567,276.1c6.7-4.4,12.6-9.9,17.5-16.1"/>
				<path class="st1" d="M567.3,285.8c10.2-3.9,19-11.3,24.5-20.8"/>
				<path class="st1" d="M566,295.3c11.2-4,20.9-11.8,27.2-21.8"/>
				<path class="st1" d="M566,303.8c7-2.5,13.5-6.5,18.8-11.8"/>
				<path class="st1" d="M565.5,312.4c3.7-1,7.1-3,9.7-5.8"/>
				<path class="st1" d="M562.2,321.7c1.7-0.5,3.2-1.4,4.6-2.6"/>
				<path class="st1" d="M559.8,329.4c1.3-0.2,2.5-0.8,3.3-1.8"/>
				<path class="st1" d="M623.1,276.7c-3.6,4.1-5.1,9.6-6.2,14.9c-1.6,7.5-2.5,15.2-2.9,22.9"/>
				<path class="st1" d="M626.7,286.5c-1.6,4.5-2.8,9.3-3.4,14.1"/>
				<path class="st1" d="M613.8,284.7c-4.1,12.5-7.1,25.3-8.9,38.3"/>
				<path class="st1" d="M601.7,303.3c-3.1,8.2-4.9,16.9-5.4,25.7"/>
				<path class="st1" d="M592.3,318.7c-1,4.5-2.1,9-3.1,13.5"/>
				<path class="st1" d="M586.8,327.1c-2.6,3.6-3.7,8.2-3.1,12.6"/>
				<path class="st1" d="M578.2,333.1c-2,4-3.4,8.3-4.3,12.7"/>
				<path class="st1" d="M569.6,339.2c-1.9,4.3-3.6,8.6-5,13.1"/>
				<path class="st1" d="M562.1,343.4c-2.1,5.2-3.9,10.5-5.5,15.9"/>
				<path class="st1" d="M555,348.9c-2.7,4.3-4.7,9.1-5.8,14.1"/>
				<path class="st1" d="M557.6,340.5c3.1-0.6,5.8-2.7,7.3-5.5"/>
				<path class="st1" d="M527.2,366.3c0.7,0.5,1.5,0.9,2.4,0.9"/>
				<path class="st1" d="M540.8,353.7c-0.5,1.7-1,3.4-1.4,5.1"/>
				<path class="st1" d="M631.6,311.3c4-0.5,7.9-1.5,11.6-2.9"/>
				<path class="st1" d="M626,318c7.1,1.5,14.7,0.9,21.5-1.6"/>
				<path class="st1" d="M619.5,325.6c8.2,3.3,17.5,4,26.1,2.1"/>
				<path class="st1" d="M611,332c5.2,3.2,11.2,5.1,17.3,5.4"/>
				<path class="st1" d="M602.2,337.4c2.1,1.4,4.5,2.4,7,2.7"/>
				<path class="st1" d="M592.9,345.3c2.5,0.5,5,0.6,7.5,0.4"/>
				<path class="st1" d="M581.7,352.8c2.1,0.8,4.3,1.1,6.5,0.8"/>
				<path class="st1" d="M571.9,360.2c2.4,0.6,5,0.9,7.5,0.9"/>
				<path class="st1" d="M558.4,367.6c3.1,1.1,6.6,1.2,9.8,0.5"/>
				<path class="st1" d="M546.8,375.6c3.2,0.1,6.3-0.3,9.3-1.4"/>
				<path class="st1" d="M536,379.8c1.8,0.7,3.8,0.7,5.6,0"/>
			</g>
			<g>
				<path class="st1" d="M619,245.7c-15.3-11.7-56.4-12.4-75.7-10.8c35.6-1.3,80.2-1.8,95.6-45.3c4.9-14-2.9-21.4,4-30
					c3.4-4.2,10.4-5.9,14.3-2.1c2,1.9,2.9,4.9,5.3,6.2c3.2,1.8,7.3-0.2,10.8,0.7c2.9,0.8,5.1,3.6,5.1,6.6c0,4.3-0.6,3.6,3.5,6.3
					c5,3.4,4.2,10.3,1.1,14.6c-7,9.7-22.4,10.5-27.8,21.9c-1.9,4,0.1,6.2,4.2,6.1c13.9-0.6,22.6-17.5,36.5-18.8
					c8.2-0.8,13,5,11.6,10.1c-0.7,2.4-4.2,6.5,4.9,10.5c9,4,6.8,7.8,2.2,12.4c-5.4,5.4,0.2,7.8,0.7,8.2c3.3,2.8,2.4,11.3-8.8,11.8
					c-14.4,0.6-27-10.2-41.4-11.5c-8.4-0.8-11.7,6.1-3.3,10.1c11.7,5.6,36.8,0.6,43.2,15c3.9,8.8-5.9,9.5-5.8,14
					c0.1,3.8,9.3,6.7,1.4,12.8c-2,1.5-4.5,2.5-6.2,4.4c-1.3,1.4-5.1,10.5-15.6,6C667.9,300.4,646.8,266.9,619,245.7L619,245.7z"/>
				<path class="st1" d="M701.5,223.1c-36.1,26.2-106.4,6.1-158.2,11.8"/>
				<path class="st1" d="M685.8,286.9c-17.3-19.8-44-37.7-66.9-50.6c21-12.6,38.3-33.7,40.5-58.1"/>
				<path class="st1" d="M649,163.4c4,6.5,5.8,14.4,5,22"/>
				<path class="st1" d="M646.5,170.6c2.7,7.4,3.8,15.4,3.4,23.3"/>
				<path class="st1" d="M643.4,185.8c3.6,6.5,4.1,14.7,1.2,21.5"/>
				<path class="st1" d="M639.9,199.3c1,4.5,0.8,9.2-0.5,13.6"/>
				<path class="st1" d="M634.2,209.7c0.1,5.1-1.4,10.1-4,14.4"/>
				<path class="st1" d="M625.5,217.1c0.4,4.1-1.1,8.4-4.1,11.3"/>
				<path class="st1" d="M616.7,224.6c-1.4,2.7-3.3,5.1-5.6,7"/>
				<path class="st1" d="M662.5,184.3c4.5-1.7,8.4-4.8,11-8.7"/>
				<path class="st1" d="M662.9,190.8c4.9-1.5,9.6-3.8,13.9-6.8"/>
				<path class="st1" d="M659.1,199.9c5.2-1.4,10.1-3.8,14.5-6.9"/>
				<path class="st1" d="M650.7,210.2c1.2,0.1,2.5-0.5,3.2-1.4"/>
				<path class="st1" d="M645.6,219.9c1.7-0.3,3.4-0.6,5.1-0.9"/>
				<path class="st1" d="M637.6,228.5c4.4,0.1,8.8-0.5,13-1.7"/>
				<path class="st1" d="M701.7,208.4c-5.9,5.5-11.1,11.8-15.2,18.7"/>
				<path class="st1" d="M693.3,208.4c-6.8,5.8-12.3,13-16.2,21"/>
				<path class="st1" d="M680.8,215c-5.4,3.5-9.6,8.8-11.8,14.8"/>
				<path class="st1" d="M666.9,224c-2.2,2.3-4.4,4.6-6.7,6.8"/>
				<path class="st1" d="M658.5,225.4c-1.7,1.6-3.4,3.1-5.1,4.7"/>
				<path class="st1" d="M675.8,237.7c3.8,2.7,8.2,4.7,12.7,5.9"/>
				<path class="st1" d="M685.1,235.8c5.3,4.8,12.1,7.9,19.2,8.8"/>
				<path class="st1" d="M695.5,234.3c4.1,2.1,8.5,3.8,13,4.7"/>
				<path class="st1" d="M701.5,229.3c1.9,1.2,3.9,2.2,6.1,2.8"/>
				<path class="st1" d="M640.3,241c1.9,2.7,4.8,4.6,8.1,5.4"/>
				<path class="st1" d="M649.3,240.9c1,1.4,2.5,2.4,4.2,2.8"/>
				<path class="st1" d="M644.6,255.4c-0.2,3.5,0.6,7.2,2.3,10.3"/>
				<path class="st1" d="M651.3,260.5c0.7,4.3,1.8,8.6,3.6,12.6"/>
				<path class="st1" d="M660,266.5c-0.4,6.4,1.9,12.9,6.1,17.7"/>
				<path class="st1" d="M667.6,273.5c1,6.9,3,13.7,5.7,20.1"/>
				<path class="st1" d="M676,282.8c1.3,6,4.1,11.8,8.2,16.4"/>
				<path class="st1" d="M683.7,277.6c4.4-1.9,9.3-2.7,14-2.1"/>
				<path class="st1" d="M679.9,273.8c5.8-3.5,12.5-5.4,19.2-5.3"/>
				<path class="st1" d="M673.9,268.6c5.4-2.6,11.4-3.9,17.4-3.8"/>
				<path class="st1" d="M666.9,263.6c3.8-1.5,8.1-2.1,12.2-1.6"/>
				<path class="st1" d="M661.9,258.5c1.4-0.2,2.8-0.5,4.2-0.7"/>
				<path class="st1" d="M639,252.1c-0.5,1.6-0.5,3.5,0.1,5.1"/>
				<path class="st1" d="M633,248.8v3.3"/>
				<path class="st1" d="M652.1,253.5c0.8-0.2,1.7-0.1,2.3,0.4"/>
			</g>
			<g>
				<path class="st1" d="M645.2,375.9c-4.2-4.5-24.2-14.6-41.5-17.3c25.1-6.8,32.2-0.5,46.1-7.3c16-7.9,12.8-12.9,17.2-29.4
					c1.3-5,4.1-10.4,8.9-8.5c4.7,1.9,3.9,9.3,12.5,3c7.7-5.6,6.8,4.2,8.8,5.8c2.3,1.6,4.4-0.9,6.6-0.8c4,0.2,4,2.1,6.2,5.2
					c3.3,4.7,5.6,6.9,0.4,11.8c-8.2,7.7-22.3,5.1-29.1,14.9c-2.2,3.2-0.8,5.4,2.8,5.9c12.2,1.5,22.2-12,34.4-11.1
					c7.3,0.5,10.6,6.2,8.7,10.5c-0.9,2-4.6,5,2.8,9.9c7.3,4.8,4.8,7.8,0.2,11.1c-5.5,3.9-0.9,6.8-0.6,7.2c2.5,2.9,0.5,10.2-9.3,9
					c-12.6-1.5-22.1-12.8-34.4-16c-7.2-1.9-11,3.6-4.3,8.3c9.4,6.5,31.9,5.8,35.5,19.3c2.2,8.2-6.5,7.4-7,11.3
					c-0.5,3.3,7.2,7.2-0.6,11.3c-2,1-4.2,1.6-6,3c-1.3,1-6,8.4-14.5,3C679.9,430.5,666.3,398.3,645.2,375.9L645.2,375.9z"/>
				<path class="st1" d="M719.6,373.5c-11.3-6.2-25.2-2.4-38-3.5c-14.2-1.2-36.6-12-77.9-11.4"/>
				<path class="st1" d="M698.3,417.6c-32.8-19.2-35-42.6-48.4-54.7"/>
				<path class="st1" d="M690.9,326.4c-8.8,16.6-22.7,31.7-41,36.5"/>
				<path class="st1" d="M682.3,324.3c-0.5,1.7-0.6,3.4-0.4,5.1"/>
				<path class="st1" d="M677.1,320.6c-0.7,5.4,0.2,11,2.5,15.9"/>
				<path class="st1" d="M673.1,320.5c-1.5,7.5-0.6,15.4,2.4,22.4"/>
				<path class="st1" d="M668.5,329.4c-0.4,5.9-0.1,11.9,1,17.7"/>
				<path class="st1" d="M664.6,344.3c-0.5,2-0.6,4-0.3,6.1"/>
				<path class="st1" d="M659.5,350.8c-1,1.7-1,4,0.2,5.6"/>
				<path class="st1" d="M690.8,333.3c3.5-0.6,6.8-1.9,9.7-3.9"/>
				<path class="st1" d="M688.4,339c5,0.4,10.1-0.9,14.4-3.5"/>
				<path class="st1" d="M683.3,344.8c1.8,0.1,3.5-0.2,5.1-1"/>
				<path class="st1" d="M674.5,354.1c1,0.1,1.9-0.1,2.8-0.5"/>
				<path class="st1" d="M669.8,358.4c1.8,0.7,3.7,1,5.6,0.9"/>
				<path class="st1" d="M652,354.2l0.5,3.7"/>
				<path class="st1" d="M647.5,356.5c-0.6,0.2-0.6,1.1,0,1.3"/>
				<path class="st1" d="M640,365.3c0.5,0.9,0.9,1.9,1.4,2.8"/>
				<path class="st1" d="M646,366.3c1,1.1,1.7,2.6,1.9,4.2"/>
				<path class="st1" d="M656.3,375.1c0,3.5,0.5,6.9,1.4,10.2"/>
				<path class="st1" d="M661.9,384c0,2.5,0.5,5.1,1.4,7.5"/>
				<path class="st1" d="M667.5,393.8c0,2.2,0.5,4.5,1.4,6.5"/>
				<path class="st1" d="M672.9,401.7c0.7,4.1,2.2,8.1,4.4,11.6"/>
				<path class="st1" d="M680,408.7c0.8,4.7,2.3,9.2,4.3,13.5"/>
				<path class="st1" d="M687.2,415.6c1,5.2,3.2,10.2,6.4,14.5"/>
				<path class="st1" d="M696,420.8c0.4,3,1.8,5.9,4.1,8"/>
				<path class="st1" d="M699.1,411.4c3.6-1.1,7.4-1.7,11.2-1.8"/>
				<path class="st1" d="M693.6,406.9c4.9-2.3,10.4-3.3,15.8-3"/>
				<path class="st1" d="M686.6,403.1c4.2-0.8,8.4-1.7,12.5-2.5"/>
				<path class="st1" d="M681.9,398.8c2.8-1.2,5.9-1.7,8.9-1.2"/>
				<path class="st1" d="M677.2,394.2c1.6-1.1,3.8-1.3,5.6-0.4"/>
				<path class="st1" d="M674.5,389c1.5-0.5,3.1-0.6,4.7-0.4"/>
				<path class="st1" d="M670.8,383.5c1-0.6,2.3-0.6,3.2,0"/>
				<path class="st1" d="M666,378.3c1.2-0.5,2.6-0.4,3.7,0.2"/>
				<path class="st1" d="M711.7,365.3c3.3-2.7,6.9-5,10.8-6.9"/>
				<path class="st1" d="M704.4,366c3.6-3.9,8-7,13-8.9"/>
				<path class="st1" d="M697.5,366c2.9-4,7.2-7.1,12-8.5"/>
				<path class="st1" d="M690.5,366.1c1.5-2.2,3.8-3.8,6.4-4.4"/>
				<path class="st1" d="M682.3,367.1c1.4-0.9,2.8-1.9,4.2-2.8"/>
				<path class="st1" d="M678.1,365.2c0.8-0.5,1.6-0.9,2.3-1.4"/>
				<path class="st1" d="M661.9,363c1.3,0.2,2.7-0.1,3.7-0.9"/>
				<path class="st1" d="M662.9,368.6c0.6,1.7,1.5,3.3,2.7,4.7"/>
				<path class="st1" d="M669.3,365.2c1.3-1,2.7-1.7,4.3-2.2"/>
				<path class="st1" d="M671.2,370.5c1.1,1.6,2.2,3.1,3.2,4.7"/>
				<path class="st1" d="M680,371.4c0.5,1.7,1.3,3.2,2.4,4.6"/>
				<path class="st1" d="M688.8,373.3c0.4,2.3,1.6,4.5,3.3,6"/>
				<path class="st1" d="M696.3,372.8c1.3,4.5,4.1,8.5,8,11.2"/>
				<path class="st1" d="M704.6,374.2c1.4,5.1,4.7,9.6,9.1,12.5"/>
				<path class="st1" d="M712.4,375.7c1.6,4.5,4.7,8.4,8.7,11"/>
				<path class="st1" d="M717.8,368.5c1.4-1.6,3.5-2.6,5.7-2.7"/>
				<path class="st1" d="M719.6,377c1,1.2,2.3,2.2,3.8,2.8"/>
			</g>
		</g>
		<g>
			<defs>
				<rect id="SVGID_1_" width="750" height="500"/>
			</defs>
			<clipPath id="SVGID_00000032649904939987471740000002949170826510233225_">
				<use xlink:href="#SVGID_1_"  style="overflow:visible;"/>
			</clipPath>
			<g style="clip-path:url(#SVGID_00000032649904939987471740000002949170826510233225_);">
				<g>
					<path class="st1" d="M367.2,446.1c-62.2-3.6-40.8,23.8-105.2,54.5c14.1-6.7,26.3-17.5,34.5-30.8c16.6-26.9-7.7-32.8-19.2-39.1
						c-6.9-3.8-13-12.1-9.4-19.1c2.4-4.5,8.6-7.5,8.1-12.7c-0.2-2.2-1.7-4.2-1.2-6.3c0.8-3.5,5.6-3.9,8.2-6.2
						c4.2-3.9,2.6-13,8.3-14.2c2.4-0.5,5.2,1,7.3-0.2c2.2-1.3,2.2-4.5,3.9-6.3c2.1-2.3,6.1-1.6,8.2,0.6c10,10.6-8,58.4,2.2,60.8
						c3.9,0.9,8.9-11.3,9.2-21.5c0.4-13.2-9.5-29.5-5.3-42.2c1-3.1,4.3-5.7,7.4-4.9c2.9,0.8,4.8,4.3,7.9,4.4c2.7,0.1,4.6-2.5,7-3.8
						c3.4-1.9,8.2-0.6,10.2,2.7c1.1,1.8,2.4,7.2,9.3,3.5c2.2-1.2,4.2-2.9,6.7-3.2c4.9-0.6,8.8,4.8,8.5,9.7
						c-1,15.8-28.7,24.9-37.7,50.5c-2.7,7.6,2.9,9.6,8,5.4c11.9-10,13.4-33.9,37.9-46.6c6.7-3.5,10.8-0.9,11.2,2.4
						c0.5,3.7-4.2,7.8-1.6,10.5c10.7-3.3,13.5,1.8,13.1,4.6c-0.4,3.1-3.9,6.8-1.4,8.7c1.3,1,3.2,0.2,4.8,0.6
						c3.5,0.8,3.6,5.7,5.5,8.8c1,1.6,2.6,2.8,3.7,4.3c3.9,5.5-0.1,13.2-5.5,17.4C399.7,447.6,382.7,447,367.2,446.1L367.2,446.1z"/>
					<path class="st1" d="M334.8,371.2c1.1,48.9-22.5,106.1-72.9,129.5"/>
					<path class="st1" d="M392.1,406.6c-17.9,28.8-64.7,28.7-81.6,51.2c4.4-17.9-9.2-30.1-15.5-41.1c-2.3-4-3.4-7.5-8.4-21.4"/>
					<path class="st1" d="M292.7,377.4c1.5,6.6,1.5,13.5,0.1,20.1"/>
					<path class="st1" d="M299,377c2,9.2,1.5,18.9-1.1,28"/>
					<path class="st1" d="M306.6,374.6c2.2,13.2,1,27-3.6,39.6"/>
					<path class="st1" d="M279.7,405.4c1.8,2.5,4.9,3.9,8,3.6"/>
					<path class="st1" d="M276.9,411.5c3.4,3.2,8,5.2,12.6,5.5"/>
					<path class="st1" d="M274.9,418.8c6.2,3.6,13.1,5.7,20.3,6.3"/>
					<path class="st1" d="M281.1,427.9c4.9,2.9,10.7,4.3,16.4,4.1"/>
					<path class="st1" d="M280.2,398.9c1.1,1.1,2.6,1.8,4.2,1.9"/>
					<path class="st1" d="M307.3,417.1c-0.3,1.9-0.7,3.7-1,5.6"/>
					<path class="st1" d="M296.9,437.7c1.9,0.9,4,1.3,6.1,1.2"/>
					<path class="st1" d="M324.9,366.3c1.9,5.1,4.1,10.1,6.6,14.9"/>
					<path class="st1" d="M321.2,372.3c1.7,6.4,4.3,12.6,7.9,18.2"/>
					<path class="st1" d="M323.9,391.5c1.7,3.2,3.5,6.5,5.2,9.7"/>
					<path class="st1" d="M312.8,432.4c0.8,2.1,2.1,4,3.7,5.6"/>
					<path class="st1" d="M317.9,429.6c0.2,1.4,0.9,2.7,1.9,3.7"/>
					<path class="st1" d="M321.3,422.6c0.1,0.9,0.6,1.8,1.3,2.4"/>
					<path class="st1" d="M324.5,412.9c0.5,1.1,0.9,2.2,1.4,3.3"/>
					<path class="st1" d="M325.9,406.3c0.5,0.8,0.9,1.5,1.4,2.3"/>
					<path class="st1" d="M339,376.7c2.2-0.6,4.2-2,5.5-3.9"/>
					<path class="st1" d="M340,383.8c6.3-2.9,12-7.3,16.1-12.9"/>
					<path class="st1" d="M337.6,393c11-4.1,20.7-11.4,27.8-20.7"/>
					<path class="st1" d="M337.1,402.3c8.2-3.9,15.5-9.5,21.3-16.5"/>
					<path class="st1" d="M333.3,411.5c1.3-0.1,2.5-0.8,3.2-1.9"/>
					<path class="st1" d="M332,418.5l2.8-1"/>
					<path class="st1" d="M329.6,424.6c0.9-0.3,1.9-0.7,2.8-1"/>
					<path class="st1" d="M327.3,433.8c1.1-0.5,2.2-0.9,3.3-1.4"/>
					<path class="st1" d="M388.1,386.7c-4.3,8.3-6.3,17.8-5.8,27.1"/>
					<path class="st1" d="M380.9,389.1c-2.2,1.8-3.2,4.7-3.9,7.5c-1.8,7-3,14.2-3.6,21.4"/>
					<path class="st1" d="M371.7,395c-4.3,8.5-6.5,18.1-6.5,27.6"/>
					<path class="st1" d="M361.7,407.7c-2.4,5.7-3.5,12-3.2,18.2"/>
					<path class="st1" d="M354.3,420.8c-0.6,2.9-0.9,5.9-0.9,8.9"/>
					<path class="st1" d="M328.7,438.5c-0.2,0.6-0.3,1.2-0.5,1.9"/>
					<path class="st1" d="M335.2,434.8c-0.5,0.5-0.6,1.2-0.4,1.9"/>
					<path class="st1" d="M341.7,432v1.9"/>
					<path class="st1" d="M340.8,442c2.5,0,5,0.3,7.4,0.7"/>
					<path class="st1" d="M352,438.9c3.8,1.9,7.9,3,12.1,3.3"/>
					<path class="st1" d="M361.7,435.8c5.7,2.2,11.7,3.7,17.8,4.5"/>
					<path class="st1" d="M372.4,431.8c8.7,4.3,18.5,6.3,28.1,5.7"/>
					<path class="st1" d="M381.3,427.9c7.8,4.6,17.1,6.7,26.2,5.9"/>
					<path class="st1" d="M386.8,423.3c6.4,4.7,14.8,6.5,22.5,4.9"/>
					<path class="st1" d="M391.1,418.8c5.2,1.2,10.5,1.6,15.8,1.2"/>
					<path class="st1" d="M395.3,412.9c2.7,0.5,5.5,0.1,7.9-0.9"/>
					<path class="st1" d="M388.5,406.8c0.4-2.8,1.5-5.5,3.1-7.9"/>
				</g>
				<g>
					<path class="st1" d="M115.2,569.8c-6.7,3.3-16.9,1.2-18.4-6.1c-0.4-2-0.1-4.1-1.1-5.9c-2.1-4-7.9-3.3-12.4-4.1
						c-7.7-1.4-13.2-10.3-10.9-17.8c-8.3,6.5-19.5-4.1-13.3-12.7c1.3-1.8,3.2-3.2,4-5.2c1.6-4-1.5-8.3-1.3-12.5
						c0.3-7.7,10.5-10.5,18.1-9.4c23.6,3.4,43.5,23.3,67.4,22.4c12.7-0.5,14.1-14-3.9-19.8c-34.1-11-47.1-5.9-57.4-12.1
						c-5.3-3.1-8.8-10.1-5.9-15.5c3.5-6.4,13.9-7.1,16.4-14c1.8-5.3-1.7-12.7,2.8-15.9c3.6-2.6,8.8,0.4,13-1.1
						c6.5-2.4,5.4-12.9,11.2-16.7c4.9-3.2,12.1,0.1,17.1-3c5.2-3.3,8.3-22.9,18.3-12.5c21.6,22.6,8.2,83.5,10.2,89.3
						c1.2,3.5,6,7,10.1,0.7c14.6-22.5-3.3-58.3,19-76c7.3-5.7,9,4.6,14.1,7c7.3,3.5,13.7-9.5,21.8-8.4c9.9,1.4,9.3,21.5,19.3,20.6
						c2.9-0.3,5.2-2.5,7.9-3.6c14.7-6.2,31.8,20,11.9,43.6c-24.8,29.5-68.2,21.6-78.3,71.5c-2.4,11.7-1.4,24.4,4.6,34.7
						c-16.2-10-4-42.1-31.4-44.9C135.2,539,128.3,563.4,115.2,569.8L115.2,569.8z"/>
					<path class="st1" d="M117.4,452c15.4,5.4,28.4,19,60.9,71.3c20.9,33.7,7.9,49.7,21.3,64"/>
					<path class="st1" d="M231,438.3c6.2,39.5-41.3,67.4-43.9,102.6c-23.7-16.4-70.1-13.1-97.7-3.2"/>
					<path class="st1" d="M130.8,431.9c2,6.6,2.6,13.7,1.8,20.5"/>
					<path class="st1" d="M123.2,436.1c1.2,3.1,1.7,6.5,1.3,9.8"/>
					<path class="st1" d="M138.2,426.8c3.8,9.8,5.4,20.4,4.5,30.8"/>
					<path class="st1" d="M148.1,420.2c6,13.8,5.4,29.5,3.5,44.4"/>
					<path class="st1" d="M159,420.3c3.3,8.5,4,17.7,3.4,26.8s-2.5,18-4.5,26.8"/>
					<path class="st1" d="M166.7,460.9c0.3,7.1-0.5,14.2-2.5,21"/>
					<path class="st1" d="M103.1,456.3c4.8,2.1,10.3,2.8,15.4,1.7"/>
					<path class="st1" d="M98.8,466.3c9.5,2.5,19.7,2,28.9-1.4"/>
					<path class="st1" d="M93.6,475.2c7.5,2.5,15.7,2.8,23.5,1.8c7.9-0.9,15.6-3,23.2-5.1"/>
					<path class="st1" d="M108.7,484.8c11.5,1.6,23.4,0.6,34.5-3.1"/>
					<path class="st1" d="M138.1,491.2h11.6"/>
					<path class="st1" d="M152.1,498.2c1.1-0.2,2.2,0,3.3,0.4"/>
					<path class="st1" d="M165.6,487.4v3.7"/>
					<path class="st1" d="M219.2,435.7c0.1,6.6,1.6,13.2,4.6,19.1"/>
					<path class="st1" d="M209.4,432.5c1.1,11.7,4.3,23.3,9.4,33.9"/>
					<path class="st1" d="M200.1,433.4c0.3,16.1,4.8,32.2,13,46.1"/>
					<path class="st1" d="M192.3,444.1c0,15.8,4.3,31.6,12.4,45.2"/>
					<path class="st1" d="M189,468.8c2.2,10.4,6.1,20.3,11.4,29.4"/>
					<path class="st1" d="M187.7,488c1.6,7.1,4.7,13.9,8.9,19.8"/>
					<path class="st1" d="M184.6,500c1.3,4.6,3.4,9.1,6.2,13"/>
					<path class="st1" d="M236.3,454c0.9,0.6,2.1,0.1,3-0.4c3.8-2.1,7.3-4.8,10.3-8"/>
					<path class="st1" d="M235.9,464c9.4-1.8,18.4-5.8,26.2-11.5"/>
					<path class="st1" d="M230.4,475.9c15.5-1.3,30.4-8.3,41.3-19.3"/>
					<path class="st1" d="M222.4,486.5c16.8-0.6,33.4-6.7,46.7-17.1"/>
					<path class="st1" d="M215,496.8c5.9,1.2,12-0.1,17.8-1.7c8.1-2.3,16.1-5.4,23.7-9.1"/>
				</g>
				<g>
					<path class="st1" d="M110.5,389.7c14.6,18.6,6.1,34.4-3.5,31.5c-5.9-1.8-4.2,3.8-8.1,6.3c-1.5,0.9-3.7-0.2-5.3,1
						c-2,1.6-2.3,9.8-11.4,5.5c-13.7-6.5-7.9-23.4-15.1-33.7c-16.9-24.3-71.7-40.6-73.2-92.6c0.4,12.8,24.2,55.5,40,39.4
						c3.2-3.3,3-6.9,3.7-11c2.1-11.8,12.1-25.3,26.3-30.6c12.5-4.6,8.3,7.4,11.5,9.6c3,2,12.2-4.3,9.7,8.5c-0.6,2.9,0,7,2.9,7.2
						c1.2,0.1,2.5-0.6,3.7-0.3c2.4,0.6,2.1,4.2,0.8,6.3c-5.1,8.3-0.4,7.6,2.2,10.5c1.9,2.1,1.3,5.6-0.6,7.8
						c-6.6,7.6-14.8,5.7-23.2,3.3c-17.1-4.8-20.2,2.9-18.7,6.1c2.7,6.1,20.7,6,25.7,6.6C90.6,372.7,102.6,379.6,110.5,389.7
						L110.5,389.7z"/>
					<path class="st1" d="M97.4,410.9c1-28.7-64.5-37.8-89.5-69.6c-7-8.9-11.6-17.5-14-33.6"/>
					<path class="st1" d="M76.4,332c-19.8-0.3-33.8,28.6-53.9,23"/>
					<path class="st1" d="M84.2,426.5c3.8-6.1,6.1-13,6.8-20.1"/>
					<path class="st1" d="M80.5,419.7c3.4-6.1,4.6-13.5,3.3-20.4"/>
					<path class="st1" d="M76.5,408.7c1.2-4.4,1.2-9.1,0.1-13.5"/>
					<path class="st1" d="M69.5,388c1.5,3.7,2.2,7.8,1.8,11.8"/>
					<path class="st1" d="M59.9,381.1c1.7,2.3,2.7,5.1,2.7,8"/>
					<path class="st1" d="M52,375.5c1.3,2.1,2,4.6,2.2,7"/>
					<path class="st1" d="M44,372.7c1.5,1,2.2,3,1.8,4.7"/>
					<path class="st1" d="M37,368.1c0.6,0.7,1.1,1.5,1.3,2.4"/>
					<path class="st1" d="M66.7,374.3c3.3,1,7,0.9,10.2-0.3"/>
					<path class="st1" d="M74.7,380.4c5.6,0.1,11.2-0.4,16.7-1.5"/>
					<path class="st1" d="M83.1,386c5.4,0.2,10.9,0.1,16.3-0.4"/>
					<path class="st1" d="M91.9,391.3c4.9,0.7,10,1,15,1"/>
					<path class="st1" d="M97.9,397.8c5.2,0.9,10.4,2.6,15.1,5"/>
					<path class="st1" d="M102.2,406.9c4.5,1,8.3,4.8,9.4,9.2"/>
					<path class="st1" d="M42,355.1c1.2,1.8,3.1,3.1,5.2,3.6"/>
					<path class="st1" d="M46.3,352.2c1.7,1.8,4,2.9,6.5,2.9"/>
					<path class="st1" d="M54.5,347.2c1.5,3.4,4.9,5.9,8.6,6.3"/>
					<path class="st1" d="M60.9,342.6c2.1,5.4,6.8,9.8,12.4,11.5"/>
					<path class="st1" d="M68.7,341.1c3.1,5.7,8,10.4,13.9,13.2"/>
					<path class="st1" d="M76,338.8c2.2,3.9,6,6.8,10.3,7.9"/>
					<path class="st1" d="M43.1,345.8c-0.9-6.6,0.1-13.4,2.7-19.6"/>
					<path class="st1" d="M49.9,337.8c-0.3-7.9,2.4-15.9,7.6-21.9"/>
					<path class="st1" d="M57.2,332.2c0.2-6.9,3.2-13.8,8.2-18.5"/>
					<path class="st1" d="M65.2,328c1.2-4.4,3.9-8.4,7.7-11.1"/>
					<path class="st1" d="M73.7,326.2c0.2-1.6,1.4-3.1,2.9-3.7"/>
				</g>
				<g>
					<path class="st1" d="M-0.5,261.1c-3.2-56.5-26.8-43.6-66.3-51.7c24.3,3,79.3,4,74.7-34.5C7,168.1-8.4,133.6,14,119.8
						c10.8-6.6,12,10.5,20.3,11.2c5.3,0.4,9.3-6.2,14.6-5.5c6.7,0.9,6.1,11,10.2,16.4c4,5.3,15.1,7.8,5,19.6
						c-28.3,33-60.8,39.2-47.2,40.2c17.3,1.3,45.9-27.5,59.7-29.8c5.9-1,13.1,2.2,14.1,8.1c0.7,4.3-1.1,8.2,4.8,9.7
						c5.2,1.3,11-0.5,12.9,5.7c1.2,3.9-0.6,8.2,0.2,11.8c0.9,4,5.1,4.9,2.5,10.4c-1.7,3.7-4.9,6.7-6,10.6c-0.9,2.9-0.6,6.4-2.4,8.8
						c-3.8,4.9-13.2,2.2-16.3,7.6c-1.2,2.1-0.8,4.8-1.4,7.2c-1.8,8.1-13.1,10.2-20.4,6.4c-13.3-6.8-16.5-23.4-41.3-30.3
						c-7.9-2.2-9.8,3.2-7.5,7.2c4.4,7.6,33.9,15.9,45.7,35.1c4.5,7.3,5.4,18.7-2.1,22.9c-4,2.2-9.8,1.8-12.3,5.7
						c-2.2,3.3-0.8,8.1-3,11.4c-3.2,4.7-11.5,3-14.9,7.6c-1.7,2.3-1.7,5.6-3.6,7.8c-3.7,4.1-11.3,0.1-12.1-5.4
						c-0.9-5.6-0.1-4.9-5.7-8.2C-5.3,304.2,0.9,286.7-0.5,261.1L-0.5,261.1z"/>
					<path class="st1" d="M88.8,225.1c-17.8-15.2-40-4.7-155.7-15.8"/>
					<path class="st1" d="M32,141.9c-1.4,27.5-16.2,58.5-40.2,71.9c20.6,25.1,31.2,53.5,32.2,86"/>
					<path class="st1" d="M20.1,126.7c0.1,8.6,2.8,17.1,7.5,24.2"/>
					<path class="st1" d="M15.8,127.6c-0.9,2.2-0.6,4.6-0.2,6.9c1.4,8,4.1,15.8,7.8,23"/>
					<path class="st1" d="M10.9,135.6c-0.5,11.8,3.1,23.7,10.2,33.1"/>
					<path class="st1" d="M7.2,149.6c1.5,9.4,4.3,18.5,8.2,27.1"/>
					<path class="st1" d="M11.4,179.4c0.4,1.6,0.8,3.1,1.2,4.7"/>
					<path class="st1" d="M34.2,149.6c6.2-1.8,11.5-6.3,14.1-12.1"/>
					<path class="st1" d="M35.2,157.2c7-2.8,13.3-7.4,18.1-13.2"/>
					<path class="st1" d="M32.3,166.4c8.1-1.6,15.7-5.3,21.9-10.8"/>
					<path class="st1" d="M29,174.9c8.8-1.2,17.3-4.8,24.2-10.4"/>
					<path class="st1" d="M24.4,183.7c4.8-0.6,9.5-2.5,13.5-5.3"/>
					<path class="st1" d="M20.2,190.6c1.5-0.2,3.1-0.3,4.7-0.5"/>
					<path class="st1" d="M17,219.4c1.4,0.9,2.6,2.1,3.6,3.4"/>
					<path class="st1" d="M25.3,219.5c1.5,2.7,3.6,5.1,6.1,7"/>
					<path class="st1" d="M36,219.5c1.1,4.5,3.6,8.6,7,11.7"/>
					<path class="st1" d="M45.6,220c3.2,9.4,8.6,18,15.6,25"/>
					<path class="st1" d="M56.8,221.4c3.9,10.5,10.2,20.1,18.3,27.9"/>
					<path class="st1" d="M68.3,223.3c2.2,7.4,6.8,14.2,13,18.9"/>
					<path class="st1" d="M78.9,227.4c1.8,2.5,4,4.8,6.4,6.6"/>
					<path class="st1" d="M13.2,210.1c2.1-2.2,4.7-3.9,7.5-5.1"/>
					<path class="st1" d="M24.2,210c5.8-5.3,12.1-10.1,18.8-14.2"/>
					<path class="st1" d="M39,209c7-9.4,16.3-17,26.9-22.1"/>
					<path class="st1" d="M52.3,211.5c-0.1-1.7,1-3.1,2-4.4c7.1-8.7,16.2-15.7,26.5-20.1"/>
					<path class="st1" d="M66.1,210.1c-0.1-3,2.6-5.4,5.1-7.1c5.4-3.7,11.4-6.6,17.6-8.7"/>
					<path class="st1" d="M75,211.8c5.5-5.4,12.6-9.1,20.2-10.6"/>
					<path class="st1" d="M84.9,213.8c4.5-3.4,9.8-5.7,15.4-6.5"/>
					<path class="st1" d="M7.1,220.9c1.2,1.9,2.8,3.5,4.7,4.6"/>
					<path class="st1" d="M6.6,209.6c0.8-1,2-1.7,3.3-1.8"/>
					<path class="st1" d="M13.6,241.4c3.6,0.6,7.2,1.5,10.7,2.7"/>
					<path class="st1" d="M17.4,250.3c6.5,0.1,13,1.8,18.7,4.9"/>
					<path class="st1" d="M22,258c4.6,0,8.9,2,12.8,4.2c6.1,3.5,11.8,7.6,17,12.3"/>
					<path class="st1" d="M25.4,266.8c9.5,3.5,17.7,10.7,22.3,19.8"/>
					<path class="st1" d="M26.8,276.5c7.1,4.3,12.3,11.6,14,19.8"/>
					<path class="st1" d="M27.6,288.9c4,4.5,6.9,10,8.5,15.8"/>
					<path class="st1" d="M3.5,237.7c-0.8,1.9-1.6,3.7-2.5,5.5"/>
					<path class="st1" d="M7.9,245.9c-2.5,2.2-4.2,5.3-4.9,8.6"/>
					<path class="st1" d="M11.6,253.8c-3.9,4.6-7.3,9.7-10,15.1"/>
					<path class="st1" d="M12.7,263.7C8.4,268.5,5.1,274,2.9,280"/>
					<path class="st1" d="M15.2,274.6c-6.1,6.6-10.1,15.1-11.2,24.1"/>
					<path class="st1" d="M15.9,287.5c-3.6,6.5-6.1,13.7-7.5,21"/>
					<path class="st1" d="M20,297.2c-3.4,4.6-5.4,10.2-5.5,16"/>
				</g>
				<g>
					<path class="st1" d="M29.1-14.5c9.6-5.6,19.7-10.2,28.8-16.4c13.8-9.4,22.2-23.5,35.9-33.2c-18.6,26.4-33.9,41.9-7.7,61
						c6,4.3,32,13.3,24.3,24c-1.1,1.6-3,2.5-3.8,4.3c-2,4.5,4.8,9.8,2.2,14c-2.9,4.5-8.9,2.8-6.7,10c1.5,5.2,7.8,7.4,4.8,14
						c-3.8,8.4-16.3,5-21.1-0.3C75,50.8,75.1,31.3,63.1,20.7C50.4,9.4,53.2,54.4,82.3,73c6.5,4.1,14.8,8.6,14.8,16.3
						c0,4.8-4.3,9.2-9.1,9.4c-2.4,0.1-4.8-0.7-7.1-0.1c-7.1,1.7-8.5,14.4-15.8,13.9c-4.2-0.3-6.8-5.2-10.9-6
						c-5.8-1.2-9.6,5.7-14.5,9c-5.1,3.5-6.1-3.4-9.4-5.5c-3.5-2.3-8,1.2-12.2,1.5c-4.4,0.3-8.4-3.3-9.8-7.5
						C2.6,87.7,26,54.2,33.1,33.7c2.3-6.6-2.2-8.8-6.6-4.2C16.1,40.5,4.4,65.4,0.9,80.1c-0.9,3.8-2.4,18.7-12.4,18.6
						c-10-0.1-10.4-14.8-13.9-16.3c-2.4-1-4.8,1.6-7.3,1.8c-3.8,0.3-5.9-4.4-6.4-8.2c-2-18-11.4-6.7-16.7-11.2
						c-7.1-6.1,10.1-14.4,6-21.6c-0.5-0.9-1.2-1.5-1.8-2.3c-2.9-4-2-16.1,19-14C-2.4,29.9,6.9-1.6,29.1-14.5z"/>
					<path class="st1" d="M53.6,93.2C39.5,40,57.6-22.7,93.8-64.2"/>
					<path class="st1" d="M91.3,40.5C89.8,19.9,72.9,0.3,65.1-18.8C24.4,1,11.8,14.5-23.6,58.6"/>
					<path class="st1" d="M-3.1,19.5c1.7,0.2,3.4,0.3,5.1,0.5"/>
					<path class="st1" d="M4.3,14c3.1-0.4,6.1-1.4,8.9-2.8"/>
					<path class="st1" d="M11.3,4.9c2.8,0.5,5.7,0.2,8.4-0.7"/>
					<path class="st1" d="M-1.1,68.5c2.5-10.7,3.7-21.7,3.5-32.7"/>
					<path class="st1" d="M6.9,50.3c1.3-7.2,2-14.6,2-22"/>
					<path class="st1" d="M13.6,37.2c2.1-5.8,3.1-12,2.9-18.2"/>
					<path class="st1" d="M21.7,28.5c2-5.2,3.2-10.8,3.5-16.4"/>
					<path class="st1" d="M29.6,20.5c2.5-5,4.3-10.4,5.4-15.9"/>
					<path class="st1" d="M38.9,13.5c1.5-4.2,3-8.4,4.5-12.6"/>
					<path class="st1" d="M47.4,8c2.8-3.9,4.6-8.4,5.4-13.2"/>
					<path class="st1" d="M67-6.7c-2.4,5.3-3.8,11.1-3.8,16.9"/>
					<path class="st1" d="M71.3-0.1c-2.4,5.7-3.5,12-3.1,18.2"/>
					<path class="st1" d="M75.3,9.2c-2.1,6.1-2.8,12.8-1.9,19.2"/>
					<path class="st1" d="M79.8,17.7c-1.2,5.7-1.7,11.5-1.4,17.2"/>
					<path class="st1" d="M85,29.3c-2,6.3-2.3,13.1-1,19.6"/>
					<path class="st1" d="M88.7,44.7c0.2,2.8,0.3,5.6,0.5,8.4"/>
					<path class="st1" d="M95.8,32c3,1.4,5.3,4.1,6.4,7.2"/>
					<path class="st1" d="M91.5,23c4.5-0.2,9.1,2.2,11.4,6.2"/>
					<path class="st1" d="M87.7,13.8c4.7,0.1,9.3,1.7,13.1,4.3"/>
					<path class="st1" d="M84.9,6.9c4.9,0.2,9.8,2,13.6,5.1"/>
					<path class="st1" d="M76.6-2.3c4.4,0.6,8.6,2.4,12.1,5.1"/>
					<path class="st1" d="M39.3,29.3c1.1-2.3,3.5-4,6-4.3"/>
					<path class="st1" d="M34,46c2.8-5.6,7.5-10.2,13.2-12.9"/>
					<path class="st1" d="M27,64.1c5.4-7.6,12.1-14.2,19.7-19.5"/>
					<path class="st1" d="M21.5,86.2c-0.5-3.7,1.3-7.3,3.4-10.4c4.7-7.2,11.1-13.2,18.6-17.5"/>
					<path class="st1" d="M24.2,97.8c3.1-10.3,9-19.7,17-26.9"/>
					<path class="st1" d="M33.2,102.5c-0.9-1.5-0.3-3.5,0.4-5.2c2.6-6,6.2-11.7,10.4-16.7"/>
					<path class="st1" d="M41.6,100.6c1.3-3.1,2.8-6.1,4.7-8.8"/>
					<path class="st1" d="M57.5,85.7c4.6,2,8.2,5.9,9.9,10.7"/>
					<path class="st1" d="M56.5,75.4c8.2,2.8,15,9.2,18.2,17.2"/>
					<path class="st1" d="M56.7,62.6c7,3.4,12.8,9.1,16.3,16"/>
					<path class="st1" d="M55.1,53.5c2.8,1.6,5.2,3.9,7,6.5"/>
					<path class="st1" d="M53.8,46.4c1.3,0.3,2.4,1.1,3.2,2.1"/>
				</g>
				<g>
					<path class="st1" d="M212.8-2.3c14.6-16.8,19.2,3.7,20.9,5.5c3.1,3.3,8.5,1.1,13,0.7c7.8-0.7,15.4,6.5,15.2,14.3
						c6.3-8.5,19.8-1.2,16.2,8.7c-0.8,2.1-2.3,3.9-2.5,6.1c-0.5,4.2,3.7,7.6,4.6,11.7c1.7,7.5-7.4,13-15,13.9
						c-23.7,3-48.1-11-70.9-3.7C181.1,59,179,80.4,238.7,71c10.2-1.6,33.7-10.2,42-0.4c2.2,2.6,2.4,7.1-0.4,9.2
						c-1.9,1.5-4.9,1.6-6.4,3.5c-2.2,3,0.8,7.5-0.5,11c-1.3,3.5-6.1,4.2-8.1,7.4c-2.3,3.7,0.2,8.6-1,12.8c-1.9,6.3-11,7.8-13.5,13.9
						c-0.9,2.1-0.8,4.5-1.4,6.7c-3,10.3-16.4,5.9-22.5,12.7c-4.2,4.6-2,24.3-14.3,16.9c-26.8-16.1-30.1-78.3-33.6-83.4
						c-2.1-3.1-7.7-5.2-9.9,2c-8.1,25.6,18.7,55.4,1.8,78.3c-5.5,7.5-9.9-2-15.4-3c-8-1.5-10.7,12.8-18.8,13.8
						c-9.9,1.3-14.6-18.3-24-14.8c-2.7,1-4.3,3.8-6.6,5.6c-12.6,9.9-36-10.8-23.1-38.9C99.7,87.5,147.1,59,122.2,13.1
						c-6.4-11.8-10.1-24.4-12.9-37.6c3,14.2,22.9,25.8,31.8,36.1c9.5,11.1,18.7,27.8,36.4,27.5C198.3,38.9,197.7,15,212.8-2.3
						L212.8-2.3z"/>
					<path class="st1" d="M240.7,116c-16.2-0.6-27.1-13.3-57.3-42c-30.5-29-69.2-74.8-74.1-98.5"/>
					<path class="st1" d="M246.5,19.7C208.7,56.3,175,56.8,148.4,37c-0.2,34.5-4.5,67.3-19.8,98.5"/>
					<path class="st1" d="M135.4,133.7c3.3,5.9,4.7,12.9,4,19.6"/>
					<path class="st1" d="M140.9,124.4c5.7,7.4,8.7,16.8,8.2,26.1"/>
					<path class="st1" d="M145.1,110.8c9.1,10.4,14.3,24,14.6,37.8"/>
					<path class="st1" d="M149.5,95.8c8.2,11.2,13.4,24.6,14.6,38.4"/>
					<path class="st1" d="M152.2,83.8c3.7,5.1,6.1,11.1,7,17.3"/>
					<path class="st1" d="M153,68.4c2.4,3.2,4.1,6.9,5.1,10.8"/>
					<path class="st1" d="M153.9,55.9c3.3,3.4,5.5,7.9,6,12.6"/>
					<path class="st1" d="M97.3,149.5c3-7.3,8.3-13.5,14.3-18.6c6-5.1,12.8-9.3,19.5-13.4"/>
					<path class="st1" d="M90,136.4c4.8-9,12.3-16.4,20.6-22.3s17.5-10.6,26.6-15.2"/>
					<path class="st1" d="M97.3,114c9.3-11.2,22.5-18.3,35.3-25.2"/>
					<path class="st1" d="M110.8,91.5c7-7,15.7-12.2,25.1-15.1"/>
					<path class="st1" d="M120.4,75.1c5.4-4.5,11.6-8.1,18.2-10.6"/>
					<path class="st1" d="M127.9,60.2c3.5-4.2,7.7-7.7,12.5-10.4"/>
					<path class="st1" d="M133.4,47c1.9-2.2,3.7-4.3,5.6-6.5"/>
					<path class="st1" d="M191.1,88.5c-0.7,9.9-0.4,20,1.1,29.8"/>
					<path class="st1" d="M199.5,97.8c-0.4,13.2,1.2,26.4,4.7,39.1"/>
					<path class="st1" d="M208.3,107.2c0.6,11.7,3.6,23.4,8.6,34"/>
					<path class="st1" d="M219.7,117c1,6.9,3.7,13.5,7.9,19"/>
					<path class="st1" d="M229.9,123.4c2.3,3,4.6,5.9,7,8.9"/>
					<path class="st1" d="M202.9,84.1c9.3-2,18.4-5.1,27-9.1"/>
					<path class="st1" d="M213.6,92.3c1.7,0.9,3.7,0.4,5.5-0.2c9-2.9,17.6-7,25.6-12"/>
					<path class="st1" d="M226.1,100.1c13.9-2.9,26.9-10.2,36.6-20.7"/>
					<path class="st1" d="M239.2,106.4c6.8-1,13.4-3.6,19.1-7.6"/>
					<path class="st1" d="M197.8,43c1.3-0.3,1.8-1.9,2-3.2c1.1-6.2,2.2-12.5,3.1-18.8"/>
					<path class="st1" d="M206.6,38.6c1.9-1.3,2.4-3.9,2.8-6.3c1.1-7.5,2.2-15,3.2-22.6"/>
					<path class="st1" d="M219,33.1c2-8.3,2.9-16.8,2.9-25.2"/>
					<path class="st1" d="M229.1,27.1c2.5-4.4,3.8-9.5,3.5-14.5"/>
					<path class="st1" d="M239.3,18.7c1.9-1.5,3.3-3.4,4.1-5.7"/>
					<path class="st1" d="M225.7,44.7c5.1,2.1,9.9,4.8,14.4,8"/>
					<path class="st1" d="M234.6,40.8c7.8,1.2,15.4,4.1,21.9,8.6"/>
					<path class="st1" d="M242.9,35.3c9.2,0,18.4,2.8,26.1,7.9"/>
					<path class="st1" d="M249.4,29.8c1-1.5,3-1.7,4.7-1.7c5-0.1,10,0.5,14.9,1.8"/>
					<path class="st1" d="M187.9,44.3c1.2-0.8,2.2-2,2.8-3.3"/>
					<path class="st1" d="M176.8,43.9c1.4-0.2,2.8-0.3,4.2-0.5"/>
					<path class="st1" d="M179.6,54.5c0.5,2,1.4,4,2.8,5.6"/>
					<path class="st1" d="M173,52.2c0.6,2.4,1.7,4.7,3.3,6.5"/>
					<path class="st1" d="M159.1,38.7c2.2,0.8,4.6,1.1,7,0.9"/>
				</g>
				<g>
					<path class="st1" d="M200.3-6.8c-10.1,38-31.9,41.6-34.8,31.3c-0.7-2.6-0.1-6.4-2.7-7.3c-1.3-0.5-2.7,0.2-4.1,0.4
						c-4.4,0.5-8-5.3-5.5-8.9c-1.9-2.5-6.7,0.1-8.9-2.2c-2.3-2.5,1.5-7.4-0.9-9.8c-1.1-1.1-2.8-1-4.2-1.2c-5.2-1-7.9-8.3-4.6-12.5
						c3.9-4.9,18.2-5.8,23.1-4.5c4,1.1,11.7,6.7,22-1.5c20.7-16.6,22.8-33.9,25-56.1C208.5-54.8,206.6-30.5,200.3-6.8L200.3-6.8z"/>
					<path class="st1" d="M163.2,2.8c5.9-1.9,11.3-5.2,15.9-9.3c19.8-17.2,26.6-46.4,25.6-72.6"/>
					<path class="st1" d="M167.1,13.2c3.6-3.6,6.4-8,8.2-12.7"/>
					<path class="st1" d="M172,19.5c5.8-7,10-15.3,12.2-24.2"/>
					<path class="st1" d="M182.1,17.4c6.4-9.1,10.1-20.2,10.3-31.4"/>
				</g>
				<g>
					<path class="st1" d="M293.3,14.3c1.4-19.2,6.7-36,10.6-54.7c1.4,8.4,3,17.1,7.8,24.1c4.9,7,14.2,11.6,22.1,8.5
						c10.9-4.3,15.1-19.4,27-22.3c5.2-1.2,10.9,3.7,10.5,9.1c-0.1,1.7-0.8,3.6,0.2,5c1.7,2.7,6,0.6,9,1.5c4,1.3,4,7,2.6,10.9
						c-5.7,16.3,4,12.6,8.1,17.5c2.9,3.5,1.2,16.8-18.9,9.1c-31.1-12-30.2,4.3-22.5,8.3c16.1,8.4,29.5,2.4,65.1,7.1
						c4.8,0.6,13-1.7,18,2.8c3.9,3.5,4.2,10.8-2.2,16.7c-3.5,3.2-2.7,3.8-0.6,7c1.6,2.5,1.2,6.1-0.9,8.2c-1.8,1.8-4.7,2.8-5.3,5.2
						c-0.6,2.2,3.6,10.4-6.1,13.2c-4.7,1.3-9.9-1.6-13.3,2.7c-3,3.8-1.7,10.3-6,13.2c-4.9,3.2-12.4-2.4-16.9,1.3
						c-1.7,1.4-2.3,3.9-3.8,5.5c-16.2,17.4-43.5-62.4-47.7-70.3c-3.3-6.2-8-4.4-7.6,2c1,15.1,11.2,40.6,19.6,53.3
						c2.1,3.2,12.1,14.4,5.2,21.7c-6.9,7.3-17.9-2.5-21.4-0.9c-3.3,1.5-3.2,11.6-9.1,8.9c-1.6-0.7-2.6-2.6-4.4-2.8
						c-3.4-0.3-4.5,5.7-7.9,5.6c-3.7-0.1-4.8-7.6-9.2-3.8c-5.5,4.6-5.7,7.8-7.6,8.9c-1.7,1-4.1,0-5.2-1.7c-2.2-3.2-1.5-7.6-3.8-6.4
						c-3.6,1.9-5.6,7.1-9.7,7c-3.3-0.1-5.3-4.1-4.6-7.4c1.4-6.2,5.6-7.5,15.1-28.4C302.4,49.4,291.5,40,293.3,14.3L293.3,14.3z"/>
					<path class="st1" d="M397.6,79.3C334.3,55.7,298.4-4.3,304-40.4"/>
					<path class="st1" d="M373.8-1.9c-7.7,7.6-18.9,10.9-29.7,10.6c-10.8-0.3-23.9-5.4-33.7-10.1c2.1,55.5,3.6,85-8,110.6"/>
					<path class="st1" d="M279.8,118c7.3-2.8,13.9-7.4,19-13.2"/>
					<path class="st1" d="M282.1,106.5c7.8-2.1,13.8-8.1,19.4-14"/>
					<path class="st1" d="M286.4,93.9c7.7-3.4,14.4-8.9,19.4-15.7"/>
					<path class="st1" d="M294.3,77c3.7-2.3,7-5.2,9.7-8.5"/>
					<path class="st1" d="M296.5,64.3c3.4-2.5,6.2-5.7,8.4-9.4"/>
					<path class="st1" d="M298.4,50.8c2.8-2.7,5.2-5.8,7-9.3"/>
					<path class="st1" d="M299.3,37.2c3.5-3,6.2-6.9,7.9-11.2"/>
					<path class="st1" d="M297.8,26.4c3.5-4.2,6.6-8.9,9.1-13.8"/>
					<path class="st1" d="M297.5,13c3.5-3.9,6.3-8.5,7.9-13.5"/>
					<path class="st1" d="M311.9,101.6c3,5.1,7.9,8.9,13.5,10.8"/>
					<path class="st1" d="M316.1,92.2c4.2,6,9.3,11.5,14.9,16.3"/>
					<path class="st1" d="M318,78.7c3.5,5.4,7.7,10.3,12.5,14.6"/>
					<path class="st1" d="M316.7,63.7c1.9,2.4,4.2,4.5,6.8,6.3"/>
					<path class="st1" d="M316.1,51.2c1.2,1.6,2.6,3,4.1,4.2"/>
					<path class="st1" d="M316.1,38.2c0.8,1.6,1.9,3,3.3,4.2"/>
					<path class="st1" d="M316.1,26.1c1.1,3.2,3.5,5.9,6.5,7.6"/>
					<path class="st1" d="M334,3.6C341.7,0,347.7-6.9,350.4-15"/>
					<path class="st1" d="M345.5,3.3c7.5-4.5,13-12.1,14.9-20.6"/>
					<path class="st1" d="M355.8,2.9c6.4-2.7,11.3-8.7,12.6-15.5"/>
					<path class="st1" d="M370.9,7.5c2,3.5,5.5,6.1,9.5,6.9"/>
					<path class="st1" d="M361.7,11.2c1.7,1.5,3.6,2.8,5.6,3.7"/>
					<path class="st1" d="M348.2,12.6c0.8,0.3,1.5,0.6,2.3,1"/>
					<path class="st1" d="M335.4,11.5c2.3,2.4,4.6,4.8,6.9,7.1"/>
					<path class="st1" d="M325.6,9.9c2,4.4,5.4,8.2,9.7,10.5"/>
					<path class="st1" d="M341.3,47.5c0.5,5.5,1.4,11,2.7,16.3"/>
					<path class="st1" d="M348.9,55.4c0.5,11.7,3.2,23.2,7.8,34"/>
					<path class="st1" d="M358.3,62.9c0.4,12.3,4.2,24.6,10.8,35"/>
					<path class="st1" d="M369.3,71.3c0.9,9.9,4.6,19.6,10.5,27.6"/>
					<path class="st1" d="M380.1,78.8c2.5,6.4,5.9,12.5,10.1,18.1"/>
					<path class="st1" d="M392.1,84.3c0.8,3.3,3.3,6.2,6.5,7.4"/>
					<path class="st1" d="M348.7,41.5c8.8,0.9,17.7-0.1,26.1-3"/>
					<path class="st1" d="M360.8,50.7c10,0.3,20.1-2.2,28.8-7.1"/>
					<path class="st1" d="M374.4,57.1c12.4-0.9,24.6-5,34.9-12"/>
					<path class="st1" d="M386.9,62.7c12.2,1.3,23.8-5,34.5-11"/>
					<path class="st1" d="M398.1,70c8.1-0.9,16-3.2,23.3-6.7"/>
					<path class="st1" d="M408.8,76.5c4.1-0.1,8.3-1.4,11.6-3.8"/>
					<path class="st1" d="M341.7,34.5c2.1,0.7,4.3,1,6.5,0.9"/>
					<path class="st1" d="M335.2,27.4c1.7,0.9,3.8,1.1,5.6,0.5"/>
					<path class="st1" d="M309.4,110.9c0.6,3.6,2.5,6.9,5.2,9.3"/>
					<path class="st1" d="M286.8,124.4c3.5-2.7,6.5-6.1,8.8-9.9"/>
				</g>
				<g>
					<path class="st1" d="M453.3,14.3c1.9,7.2-7.9,11.4-11.8,5.1c-1.8,15.1-15.5,14.4-15.5,5.1c-0.6,7.5-11.3,8.5-13.3,1.3
						c-1.3,2.1-3.1,4.4-5.6,4.5c-11.2,0.1-1-25,1-28.6c2.7-4.9,5.7-9.5,5.8-15.4c0.5-29.6-34.4-74.9-5.2-118
						c-7.2,10.6-12.9,59.2,9.4,55.3c4.5-0.8,6.4-3.9,9.4-6.8c8.6-8.3,24.6-13.4,39.2-9.4c12.8,3.6,2.4,10.9,3.8,14.5
						c1.2,3.4,12.4,3.7,2.9,12.5c-2.1,2-4.1,5.6-1.9,7.6c1,0.8,2.4,1,3.2,1.9c1.6,1.9-0.7,4.6-3,5.6c-9,3.8-4.8,6-4.4,9.8
						c0.3,2.8-2.3,5.3-5,5.9c-9.8,2.3-15.4-4.1-20.8-10.9c-11-13.9-18-9.5-18.8-6c-1.4,6.4,8.7,13.4,12.8,16.8
						c9.5,8,26.9,28.1,28.2,40.2S455.5,18.2,453.3,14.3L453.3,14.3z"/>
					<path class="st1" d="M427.5,14.1c9.1-26-48.9-105.7-18.7-145.8"/>
					<path class="st1" d="M407,19.7c5.3-3.1,9.6-8,11.9-13.7"/>
					<path class="st1" d="M416.6,21.8c3.3-3,6-6.6,8.1-10.6"/>
					<path class="st1" d="M411.8,6.7c3.6-4,6.4-8.7,8.1-13.7"/>
					<path class="st1" d="M434,5.1c2,2.7,4.8,4.9,7.9,6.1"/>
					<path class="st1" d="M432.4-9.7c4.9,6.2,11.5,11.2,18.9,14.2"/>
					<path class="st1" d="M432.1,11.2c0.9,2.5,2.3,4.7,4.2,6.5"/>
				</g>
				<g>
					<path class="st1" d="M568.2,35.5c-49.7,37.6-15.6,44.6-44.8,109.7c6.4-14.2,8.7-30.4,6.3-45.8c-4.8-31.2-27.1-20-40-17.4
						c-7.7,1.6-17.8-0.8-19.5-8.5c-1.1-5,1.7-11.3-2-14.9c-1.6-1.5-4-2.1-5.1-4c-1.7-3.1,1.8-6.5,2.2-10.1
						c0.7-5.7-6.4-11.6-2.9-16.2c1.5-2,4.6-2.6,5.4-4.9c0.8-2.4-1.2-4.8-1.1-7.3c0.1-3.1,3.6-5.2,6.6-4.8
						c14.5,1.6,31.8,49.6,41.1,44.8c3.6-1.8-0.5-14.4-6.9-22.4c-8.2-10.3-26.4-16.3-31.4-28.7c-1.2-3-0.5-7.1,2.5-8.5
						c2.8-1.3,6.5,0.1,8.8-1.8c2.1-1.7,1.9-4.9,2.8-7.5c1.4-3.6,5.9-5.8,9.6-4.6c2,0.7,6.5,3.9,9.4-3.4c0.9-2.3,1.4-4.9,3-6.8
						c3.3-3.6,9.8-2.1,12.8,1.8c9.5,12.7-5.7,37.5,4,62.9c2.9,7.5,8.5,5.4,9.6-1.1c2.6-15.4-11.8-34.4-1.4-60c2.8-7,7.7-7.6,10-5.5
						c2.8,2.5,1.9,8.6,5.6,9c6-9.5,11.4-7.4,13-5c1.8,2.6,1.4,7.8,4.6,7.5c1.6-0.1,2.6-1.9,4-2.7c3.2-1.7,6.5,2,9.9,3.1
						c1.8,0.6,3.8,0.4,5.6,0.9c6.5,1.7,8.5,10.2,7.1,16.8C593.9,15.6,580.6,26.2,568.2,35.5L568.2,35.5z"/>
					<path class="st1" d="M497.8-4.9c33.6,36,45.6,112,25.7,150.1"/>
					<path class="st1" d="M558.4-8.4c4.4,38.8-17,60.8-26.3,87.7c-3-9-34-9.7-46-19.2c-4.1-3.2-7.1-8-12-9.9"/>
					<path class="st1" d="M469.2,28.1c5.1,4.3,8.5,10.5,9.5,17.1"/>
					<path class="st1" d="M473.3,19.1c0.9-0.5,1.8,0.5,2.4,1.3c7,10.5,12,22.3,14.6,34.6"/>
					<path class="st1" d="M484.9,26.9c7,9,11.3,20,12.3,31.3"/>
					<path class="st1" d="M501.3,50.2c2,2.4,3.3,5.4,3.6,8.5"/>
					<path class="st1" d="M474.9,60.8c2,1.2,4.5,1.4,6.6,0.6"/>
					<path class="st1" d="M477.3,68.5c4.1-0.3,8.1-0.9,12.1-2"/>
					<path class="st1" d="M481.1,75.3c5.1-0.1,10.2-1.7,14.4-4.6"/>
					<path class="st1" d="M495.1,77.4c3.9-2.2,7.8-4.3,11.7-6.5"/>
					<path class="st1" d="M510,60.5c2,1.9,3.4,4.4,4.1,7"/>
					<path class="st1" d="M518.8,61c1.1,1.9,2.2,3.7,3.3,5.6"/>
					<path class="st1" d="M509.5,75.5c1.5,0.1,2.9-0.2,4.2-0.9"/>
					<path class="st1" d="M488.5-0.9c3.1,1.4,6.2,2.8,9.3,4.2"/>
					<path class="st1" d="M485.4,4.8c6.1,3.7,13.2,5.9,20.3,6.4"/>
					<path class="st1" d="M492,13.3c4.3,3.2,9.7,4.9,15.1,4.7"/>
					<path class="st1" d="M503,23.7c2.8,1.6,5.8,2.8,8.9,3.8"/>
					<path class="st1" d="M515.8-18.3c2.9,8.6,2.6,18.2-0.8,26.6"/>
					<path class="st1" d="M523.6-16.8c1.9,11.1,0.3,22.8-4.4,33.1"/>
					<path class="st1" d="M523.5,21.4l-1.4,6.1"/>
					<path class="st1" d="M512.7,31.3c1.4,0.7,2.8,1.5,4.2,2.2"/>
					<path class="st1" d="M514.6,38.1c1.8,0.8,3.6,2,5.1,3.3"/>
					<path class="st1" d="M519.3,48c1.4,0.6,2.8,1.2,4.2,1.8"/>
					<path class="st1" d="M541.5-14.4c1.7,7.9,6.5,15,13.1,19.7"/>
					<path class="st1" d="M539.3-3.7c2.8,6.6,7.1,12.6,12.5,17.3"/>
					<path class="st1" d="M540.2,8.4c2.5,5.1,5.6,9.9,9,14.4"/>
					<path class="st1" d="M541.7,23.7c0.8,3.5,2.6,6.8,5.1,9.3"/>
					<path class="st1" d="M565,0.4c5.6-1.9,10.3-6.2,12.6-11.6"/>
					<path class="st1" d="M563.5,10.7c9.1-4.3,16.8-11.4,21.9-20"/>
					<path class="st1" d="M561.7,19.2c11.1-4.1,21.2-11.1,28.9-20.1"/>
					<path class="st1" d="M560,28.8c8.2-2.8,15.8-7.2,22.2-12.9"/>
					<path class="st1" d="M557,36.4c4.7-1,9.2-2.9,13-5.6"/>
					<path class="st1" d="M543,36.3c0.3,2.5,1.2,4.8,2.5,7"/>
					<path class="st1" d="M538.8,45.2c0.2,2.1,0.7,4.1,1.5,6"/>
					<path class="st1" d="M551.8,44.1c1.5-1.2,3.1-2.2,4.8-3.1"/>
					<path class="st1" d="M532.1,45.7c-0.1,2.2-0.3,4.4-0.7,6.5"/>
					<path class="st1" d="M535.3,52.2c-0.5,3.3-1,6.5-1.5,9.8"/>
				</g>
				<g>
					<path class="st1" d="M700.8-42.3c-24.1-18.2-54.6-27.2-84.3-29.5c17.4,4.4,28.1,23.2,20.9,46c-1.7,5.5-4.9,10.4-5.8,16.1
						c-0.9,5.6,1.6,12.6,7.2,13.8c5.3,1.1,9-2.1,11.4,11.5c0.7,4.1,3.6,8.9,7.6,7.9c3.4-0.9,5.2-5.7,8.7-5.5
						c3.3,0.3,4.2,4.6,6.7,6.8c2.9,2.5,11.2,3.8,15.2-12c3.5-1,5.9,4.4,9.5,4.4c5.5,0,4.2-10.6,9.4-12.4c1.3-0.4,2.7-0.2,4-0.4
						C721.3,2.8,727.1-22.5,700.8-42.3z"/>
					<path class="st1" d="M680.4,4.2c2.5-13.5-14.5-64.4-63.9-76"/>
					<path class="st1" d="M667.8,12.1c0.5-4.3,2.4-8.4,5.3-11.6"/>
					<path class="st1" d="M658.4,13.9c1.1-8.5,5-16.6,11-22.8"/>
					<path class="st1" d="M653.3,4.2c-0.6-2-0.1-4.3,0.6-6.3c2.2-6.4,6.2-12.2,11.2-16.6"/>
					<path class="st1" d="M684.2-7.4c6.2,2.6,11,8.3,12.6,14.8"/>
				</g>
				<g>
					<path class="st1" d="M636.8,20c-3.7-2.5-24.4-10.1-22-31.8c-0.5,4.6,7.5,13.1,10.4,16.1c4.8,5.1,10.6,6.9,15.8,11.1
						c10,8.1,16.7,18.9,29.3,24.1c12,5,20.5,3.9,29.2-6c4.5-5.2,20-39.7,45.2-32.2c12.2,3.6,0.1,15.9,5.2,22.6
						c3.2,4.2,10.8,2.8,13.8,7.2c3.8,5.6-4.1,11.9-5.5,18.6c-1.3,6.5,4.2,16.5-11.3,16.8c-43.5,0.9-69.7-19.2-61.4-8.4
						c10.6,13.8,51.1,15.9,62,24.6c4.7,3.8,7.1,11.2,3.3,15.9c-2.7,3.4-6.8,4.6-4,10.1c2.5,4.7,7.7,7.9,4.4,13.4
						c-2.6,4.3-8.1,5.2-11.4,8.9c-4,4.4-3.9,12.3-9.3,15.1c-2.9,1.5-6.5,0.8-9.7,1.7c-6.4,1.8-17.6,18.2-28-6.1
						c-4.5-10.6-7.8-21.6-12.3-32.2c-13.2-31.3-2.9-35.1-7.5-43c-1.4-2.3-2.8,1.1-3.7,3.3c-4.7,11.8,5.8,43.6-6.4,65
						c-4.2,7.5-13.5,12.8-21.5,9.7c-3.4-1.3-6.4-4-10-4c-7.7,0-9.1,9.7-15.7,10.9c-2.5,0.4-5.1-0.6-6.6-2.6
						c-4.3-5.6,1.1-7.3-10.2-13.4c-11.1-5.9-0.6-14,0.2-17.6c1.1-4.9-5.7-10.3,10.9-20.5C658.9,67.3,657.5,34.2,636.8,20L636.8,20z"
						/>
					<path class="st1" d="M734.5,124.4C702.1,112.7,675,48.8,642,20.3c-10-8.7-22.3-13.3-27.2-32.2"/>
					<path class="st1" d="M745,26.5c-30.6,29.3-68.2,27.7-82.1,16.5c7.7,29.2-18.6,70.3-41.8,87.8"/>
					<path class="st1" d="M631.3,134.8c2.9-3.4,4.8-7.8,5.4-12.2"/>
					<path class="st1" d="M639.7,136.6c3.6-6.7,5.3-14.4,4.9-22"/>
					<path class="st1" d="M649.8,136.5c3.5-10.1,4.2-21.2,2.2-31.7"/>
					<path class="st1" d="M659,128.2c3.2-11.2,2.3-23.5-2.4-34.1"/>
					<path class="st1" d="M661.2,87.8c3.3,3.3,4.8,8.3,3.8,12.8"/>
					<path class="st1" d="M604.9,126.9c6.4-3.1,13.2-5.3,20.2-6.6"/>
					<path class="st1" d="M605,117.9c8.3-7.1,20.3-9.6,30.8-6.6"/>
					<path class="st1" d="M609.2,107.6c10-4.5,21.3-6,32.2-4.4"/>
					<path class="st1" d="M620.7,97c7.8-3.9,16.6-5.7,25.3-5.1"/>
					<path class="st1" d="M633.1,86.7c0.6-2.1,3.2-2.9,5.3-3.4c4.5-0.9,9.1-1.8,13.7-2.8"/>
					<path class="st1" d="M641.3,76.3c4.8-3.2,10-5.6,15.4-7.3"/>
					<path class="st1" d="M648.2,66c2.9-3.4,7-5.8,11.3-6.8"/>
					<path class="st1" d="M653.5,56.8c1.6-2.6,4.2-4.6,7-5.6"/>
					<path class="st1" d="M681.6,75.5c-2.5,6.3-3,13.4-1.6,20"/>
					<path class="st1" d="M686.8,83.8c-1.8,9.7-1.7,19.7,0.3,29.4"/>
					<path class="st1" d="M695.4,93.1c-2.2,6.3-2.4,13.1-1.6,19.7c0.8,6.6,2.7,13,4.5,19.4"/>
					<path class="st1" d="M702,104.8c-1.1,12,0.8,24.3,5.5,35.4"/>
					<path class="st1" d="M710.3,115.5c0.1,9.2,2.2,18.3,6.1,26.6"/>
					<path class="st1" d="M720,123.9c0.3,5.6,2.1,11.2,5.2,15.8"/>
					<path class="st1" d="M727.6,114.6c4.3-1.6,9-2.2,13.5-1.8"/>
					<path class="st1" d="M721.1,107.2c5.7-1,11.5-1.3,17.2-1"/>
					<path class="st1" d="M713.1,100.4c9.8-3.4,20.5-4.3,30.8-2.6"/>
					<path class="st1" d="M708.1,92.8c9.5-4.9,20.8-6.4,31.2-4"/>
					<path class="st1" d="M701.9,85c9.4-2.3,19.3-2.8,28.9-1.6"/>
					<path class="st1" d="M697.7,80.3c5.3-2.3,11.1-3.3,16.9-2.9"/>
					<path class="st1" d="M694,73.6c1.9-0.9,4.2-0.8,6,0.1"/>
					<path class="st1" d="M687,69.8c2.3-0.7,4.7-0.8,7-0.4"/>
					<path class="st1" d="M743.8,6.4c-7,6.3-11.3,15.4-11.9,24.8"/>
					<path class="st1" d="M735.9,5.9c-3.4,2.5-5.5,6.2-7.3,10c-3,6.3-5.2,13-6.6,19.9"/>
					<path class="st1" d="M727.5,7.8c-2.5,1.7-4.1,4.5-5.4,7.2c-3.5,7.5-6,15.4-7.2,23.6"/>
					<path class="st1" d="M716,19.3c-4.3,7.8-7.3,16.3-9,25"/>
					<path class="st1" d="M706,30.6c-2.9,3.6-4.5,8.1-4.5,12.7"/>
					<path class="st1" d="M705.7,54c3.7,2.7,7.8,4.9,12.1,6.6"/>
					<path class="st1" d="M718,51.1c5,4.4,11,7.5,17.5,9"/>
					<path class="st1" d="M727.7,46.5c5.7,6.1,14,9.7,22.3,9.6"/>
					<path class="st1" d="M735.9,42c3.9,3.6,9.3,5.3,14.6,4.7"/>
					<path class="st1" d="M742.5,36.3c4.7,1.1,9.7,1.3,14.4,0.6"/>
					<path class="st1" d="M695.4,45.2c0.4-1.9,1.5-3.7,2.9-5.1"/>
					<path class="st1" d="M697.3,53.6c1.4,0.6,2.8,1.2,4.2,1.9"/>
				</g>
				<g>
					<path class="st1" d="M766.9,208.7c21.2-6.9,27.7-25.1,43.2-38.4c3.2-2.7,20.2-13.2,13-23.9c-4.3-6.4-14.1-4.7-20.5-7.2
						c-8.8-3.5,2.1-10-6.8-16.6c-5-3.8-8.8-1.8-8-8.9c0.5-4.4-3.7-10-8.3-10c-22.2,0.2-15.2,54.6-49.8,67.7
						c-24.3,9.1-33.5-11.4-40.8-19.1c-5.4-5.7-14.2-9.8-20.8-5.7c24.7,2.7,15.9,34.2,48.9,55.1C731.8,211.1,750.2,214.1,766.9,208.7
						L766.9,208.7z"/>
					<path class="st1" d="M795.2,141c-30.9,62.9-73.1,56-88.6,40.8c-11.3-11-20.7-40.8-38.4-35.2"/>
					<path class="st1" d="M740.4,187.1c7.5-8.6,12.3-19.6,13.5-31"/>
					<path class="st1" d="M730.5,187.1c4.8-3.5,9.2-7.7,12.8-12.4"/>
					<path class="st1" d="M720.2,184.3c4.1-1.1,7.9-3.1,11.1-5.9"/>
					<path class="st1" d="M714,179c2.5,0.8,5.4,0.2,7.4-1.5"/>
					<path class="st1" d="M748.4,197.2c2.7,4.3,7.3,7.4,12.3,8.3"/>
					<path class="st1" d="M738.2,196.2c1.5,5.2,6,9.5,11.3,10.8"/>
					<path class="st1" d="M730,195.7c0.7,4.2,3.2,8.1,6.8,10.4"/>
					<path class="st1" d="M723.3,194.3c0,2.4,0.9,4.7,2.4,6.5"/>
					<path class="st1" d="M715.9,191.5c0.8,2.2,1.5,4.4,2.3,6.5"/>
					<path class="st1" d="M710.3,188.2c0,1.3,0.3,2.6,1,3.7"/>
					<path class="st1" d="M703.3,182.7c0.6,1.4,1.2,2.8,1.8,4.2"/>
				</g>
				<g>
					<path class="st1" d="M809.2,288.7c14.9,12.1,56,14,75.3,12.9c-35.6,0.3-80.2-0.5-96.8,42.5c-5.3,13.8,2.3,21.5-4.8,29.9
						c-3.5,4.1-10.5,5.6-14.3,1.7c-1.9-2-2.8-4.9-5.1-6.4c-3.2-1.9-7.3,0-10.8-1c-2.8-0.8-5-3.7-4.9-6.7c0.1-4.3,0.7-3.5-3.3-6.4
						c-4.9-3.6-3.9-10.4-0.7-14.7c7.3-9.5,22.7-9.9,28.4-21.1c2-3.9,0.1-6.2-4.1-6.2c-13.9,0.2-23.1,16.9-37,17.7
						c-8.2,0.5-12.9-5.4-11.3-10.5c0.7-2.4,4.4-6.3-4.6-10.7c-8.9-4.3-6.6-8-1.9-12.5c5.5-5.3,0-7.8-0.5-8.2
						c-3.2-2.9-2.1-11.3,9.1-11.5c14.4-0.2,26.7,11,41,12.7c8.3,1,11.9-5.8,3.6-10c-11.6-5.9-36.7-1.7-42.8-16.3
						c-3.7-8.9,6.2-9.3,6.2-13.8c0-3.8-9.1-7-1-12.8c2-1.5,4.5-2.4,6.3-4.2c1.3-1.3,5.4-10.4,15.8-5.6
						C761.9,232.6,782.1,266.7,809.2,288.7L809.2,288.7z"/>
					<path class="st1" d="M728.4,303.2c18.3-9.6,56.5,0,156.1-1.6"/>
					<path class="st1" d="M744,250.1c22.7,9.7,49.1,29.9,62.5,50.6"/>
					<path class="st1" d="M720.1,296.4c2-0.7,4.4-0.4,6,0.9"/>
					<path class="st1" d="M719.7,285.6c6.2,1.3,12.1,4.5,16.5,9.1"/>
					<path class="st1" d="M728.1,282.8c6.5,1.5,12.5,5.2,16.9,10.2"/>
					<path class="st1" d="M724.9,311.7c5-1.4,9.4-4.6,12.4-8.9"/>
					<path class="st1" d="M728.2,317.6c7.7-3.5,14.4-8.9,19.4-15.7"/>
					<path class="st1" d="M735.6,320.3c7.3-3.9,13.8-9.2,19-15.6"/>
					<path class="st1" d="M749.5,316.9c5.6-3.6,10.8-7.8,15.3-12.6"/>
					<path class="st1" d="M730.4,261.2c6.3-0.2,12.6-1.9,18.1-5"/>
					<path class="st1" d="M736.4,266.9c7.2-0.7,14.3-2.4,21-5.1"/>
					<path class="st1" d="M745.8,270c6.2-0.9,12.4-2.1,18.5-3.8"/>
					<path class="st1" d="M733.2,254.2c2.5,0.3,5.1-0.2,7.5-1.2"/>
					<path class="st1" d="M740.2,236.3c4,2.1,7.2,5.9,8.5,10.2"/>
					<path class="st1" d="M747.9,233.6c5.8,5.2,10.2,12,12.6,19.5"/>
					<path class="st1" d="M749.4,345.2c5.6-4.3,12.2-7.3,19.2-8.7"/>
				</g>
				<g>
					<path class="st1" d="M831.5,422.6c2.3-19.1,30.5-49.1,45.1-61.7c-25.7,24.6-57.2,56.2-99.1,36.8c-7.6-3.5-11.2-12.5-18.4-15.5
						c-7.2-3-17.9,1.5-19.2,9.4c-0.6,3.7,0.3,8.1-2.4,10.7c-1.9,1.9-5.1,2.3-6.5,4.5c-1.5,2.3-0.4,5.5-1.2,8.1
						c-1.1,3.9-5.7,5.7-7.5,9.3c-3,6,4,13,10.8,13.1s12.8-3.9,19-6.6c15-6.7,36.8-6.8,28.2,3.3c-11.3,13.2-40,2.6-47.9,16.6
						c-5,8.8,3.4,8.3,6.4,13.7c1.8,3.3-2.1,7.6-0.2,10.9c2.1,3.8,8.2,2.5,4,9.5c-8.6,14.4,19.4,33,35,7.2
						c7.3-12.1,10.9-27.6,19.8-38.4c5.3-6.5,12.5-4.1,9.5,4.7c-4.2,12.3-25.2,26.8-19.4,41.5c3.5,8.9,10.9,2.4,14.1,5.6
						c2.6,2.7-1.7,11.4,8.2,9.9c2.5-0.4,4.9-1.4,7.5-1.3c1.9,0,11.1,3.7,15.2-7C836.6,495.7,827.3,457.2,831.5,422.6L831.5,422.6z"
						/>
					<path class="st1" d="M815.3,495.6c14.6-47,4.3-70.9,12.8-86.1c-25.5,7.6-57.8-3.6-82,8.8"/>
					<path class="st1" d="M737.8,408.2c3.8-1.2,7.9-1.3,11.7-0.1"/>
					<path class="st1" d="M744.4,401.1c4.8,0.7,9.4,2.3,13.5,4.7"/>
					<path class="st1" d="M748.6,392.5c8,1.5,15.5,5.8,20.9,12"/>
					<path class="st1" d="M734.9,415.9c3.1-1.4,6.5-1.9,9.9-1.5"/>
					<path class="st1" d="M733.6,432.5c3.7,0.2,7.3-1.2,10.4-3.4c3.1-2.1,5.6-4.8,8.2-7.5"/>
					<path class="st1" d="M730.3,422.5c2.7-1.8,6.2-2.5,9.4-1.7"/>
					<path class="st1" d="M743.9,466.8c5.8-2.1,12-3,18.2-2.6"/>
					<path class="st1" d="M741.6,461.4c8.8-3.6,18.6-4.7,28-3.1"/>
					<path class="st1" d="M741.1,453.3c12.1-3.5,25.1-3.6,37.3-0.3"/>
				</g>
				<g>
					<path class="st1" d="M659,503.3c-10.9-28.2-11.2-60-5.2-89.1c-0.5,18,14.6,33.4,38.5,32.7c5.7-0.2,11.4-1.9,17.1-1.2
						c5.7,0.7,11.6,5,11.3,10.7c-0.4,5.4-4.5,8.1,7.9,14.1c3.7,1.8,7.5,5.9,5.5,9.5c-1.8,3-6.9,3.4-7.6,6.8
						c-0.7,3.2,3.3,5.3,4.7,8.3c1.6,3.5,0.6,11.8-15.7,11.3c-1.9,3.1,2.6,6.9,1.6,10.4c-1.6,5.3-11.3,1.1-14.5,5.6
						c-0.8,1.1-1,2.5-1.5,3.8C696.7,535.4,670.8,534,659,503.3L659,503.3z"/>
					<path class="st1" d="M710,498.6c-32.6-13.7-59.3-43.9-56.2-84.4"/>
					<path class="st1" d="M656.6,450.1c-2.4,4.4-3.5,9.5-3.1,14.5"/>
					<path class="st1" d="M659.6,457.4c-3.8,7.4-4.8,16.3-2.7,24.4"/>
					<path class="st1" d="M664.5,466.8c-1.2,2-1.5,4.5-1.7,6.8c-0.7,10.6,0.5,21.4,3.8,31.5"/>
					<path class="st1" d="M670,478.5c-1.3,11.2,0.2,22.7,4.5,33.1"/>
					<path class="st1" d="M679.4,484.5c-1.8,2.4-1.7,5.6-1.3,8.6c1.2,8.9,4.2,17.5,8.8,25.2"/>
					<path class="st1" d="M684.9,492.1c1.6,8.6,5.3,16.8,10.5,23.7"/>
					<path class="st1" d="M695.2,496.3c1.5,6.1,4.7,11.8,9.1,16.2"/>
					<path class="st1" d="M664.7,448.3c5.7-0.7,11.5-0.8,17.2,0"/>
					<path class="st1" d="M669.7,458.8c8.4-4,17.8-5.9,27.1-5.3"/>
					<path class="st1" d="M675.8,467.4c0.7-1.7,2.6-2.5,4.3-3.2c8.7-3.2,17.7-5.7,26.9-7.2"/>
					<path class="st1" d="M683.1,474.3c0.9-1.7,2.7-2.7,4.4-3.6c8.5-4.2,18.1-6.1,27.5-5.3"/>
					<path class="st1" d="M692.1,479.5c-0.2-1.1,1.1-1.9,2.2-2.2c8-2.6,16.4-4.3,24.8-4.9"/>
					<path class="st1" d="M698.6,484.7c7-2.5,14.5-3.8,22-3.7"/>
					<path class="st1" d="M703.8,490.6c4.8-2.1,10.2-2.9,15.4-2.4"/>
					<path class="st1" d="M713.1,494.8c3.6-0.6,7.4-0.1,10.7,1.5"/>
				</g>
				<g>
					<path class="st1" d="M639,486.5c1.9,19.1-0.5,36.6-1.3,55.7c-2.8-8-5.8-16.4-11.8-22.4s-16-9.1-23.2-4.6
						c-10,6.1-11.6,21.7-22.9,26.5c-5,2.1-11.4-1.8-11.8-7.2c-0.1-1.7,0.2-3.7-1-4.9c-2.2-2.3-6,0.5-9.1,0
						c-4.2-0.6-5.1-6.2-4.4-10.3c2.9-17-6.1-11.7-11-15.9c-3.5-2.9-4-16.4,17.1-12.1c32.7,6.6,29-9.4,20.8-12
						c-20.1-6.4-54.8,8.7-70.8,3.1c-7.9-2.7-14.1-12.2-10-19.5c1.5-2.7,4.1-4.7,4.9-7.7c1.4-5.4-4.1-10.2-4.4-15.8
						c-0.6-10.6,11.3-8.4,14.7-11.7c3.9-3.8,0.8-11.5,4.7-15.2c4.2-4,12.7,0.3,16.5-4.2c1.5-1.7,1.6-4.2,2.9-6.1
						c13-19.9,53.5,54.2,58.9,61.2c4.3,5.5,8.6,3,7.1-3.2c-3.5-14.7-17.9-38.1-28.3-49.2c-2.7-2.8-14.3-12.2-8.8-20.5
						c5.5-8.4,18.1-0.6,21.2-2.7c2.2-1.4,1.3-4.9,2.5-7.1c1.8-3.4,6.9-2.6,10.4-0.8c16.2,8.2,11.8-5.8,18.5-7.8
						c9-2.6,6.5,16.4,14.8,16.9c1,0.1,2-0.2,3-0.2c4.9-0.2,14.6,7.1,1.3,23.6C622.8,432.5,635.6,452.3,639,486.5L639,486.5z"/>
					<path class="st1" d="M523,439.1c46.7-4.9,112.5,47.9,114.7,103"/>
					<path class="st1" d="M568.9,515c18-14.6,40.9-24,58.7-8.9c-13.7-51.5-4.9-79.3-22.9-99.2"/>
					<path class="st1" d="M612.4,387.1c1.6,5.2,1.1,11.1-1.5,15.9"/>
					<path class="st1" d="M620.5,382.1c1.9,2.7,1.7,6.2,1.2,9.5c-1.2,8.8-3.7,17.4-7.4,25.5"/>
					<path class="st1" d="M629.2,390.5c-1.4,11.2-4.6,22.1-9.6,32.1"/>
					<path class="st1" d="M601.8,386.8c1.1,2.3,1.8,4.9,1.9,7.5"/>
					<path class="st1" d="M586,392.8c2.3,4,6,7.1,10.2,8.9"/>
					<path class="st1" d="M577.2,398.7c7.9,7.9,17.4,14.2,27.8,18.2"/>
					<path class="st1" d="M584.4,414c6.8,4.8,14.3,8.8,22,11.9"/>
					<path class="st1" d="M594.8,426.8c0.3,2.2,2.4,3.6,4.4,4.7c4.3,2.4,8.8,4.6,13.3,6.5"/>
					<path class="st1" d="M600.8,439.5c4.3,3.9,9,7.2,14.1,10"/>
					<path class="st1" d="M604.3,448.9c2.7,4.2,6.5,7.8,11,10"/>
					<path class="st1" d="M610.1,464.6c1.4,2.4,3.3,4.5,5.7,6"/>
					<path class="st1" d="M628.2,429.2c-0.6,5.1-2.3,10-5,14.4"/>
					<path class="st1" d="M628.5,443.2c-0.7,5.5-2.3,10.9-4.8,15.8"/>
					<path class="st1" d="M631.3,455.3c-1.9,5.9-3.8,11.8-5.7,17.7"/>
					<path class="st1" d="M632.6,467c-1.5,6.5-3.5,12.9-6.2,19.1"/>
					<path class="st1" d="M635.3,478.6c-1.2,5.4-2.9,10.8-5.1,15.9"/>
					<path class="st1" d="M636.7,494.4c-1.1,3-1.9,6.1-2.4,9.3"/>
					<path class="st1" d="M635.3,396.6c0.8,2.3-0.1,4.8-1,7c-3.7,9.4-7.6,18.6-11.7,27.9"/>
					<path class="st1" d="M525.1,421.3c4.3,2.2,7.8,6.1,9.5,10.7"/>
					<path class="st1" d="M530.5,417.1c-0.2-0.5,0.7-0.5,1-0.2c6.8,4.4,12.2,10.8,15.3,18.3"/>
					<path class="st1" d="M539.8,410.5c8.5,6.5,15.2,15.4,19.2,25.3"/>
					<path class="st1" d="M548.8,405.6c11.2,8.8,17.5,22.3,23.1,35.3"/>
					<path class="st1" d="M576.2,434.8c2.1,3.9,3.7,8.2,4.6,12.6"/>
					<path class="st1" d="M511,455.5c7.8-2.5,15.2-6.2,21.8-11"/>
					<path class="st1" d="M510.4,447c1.7,0.5,3.5,0.4,5.1-0.1"/>
					<path class="st1" d="M520.2,428c2.9,0.1,5.6,2.2,6.4,5"/>
					<path class="st1" d="M506.8,465.8c4.4,1.7,9.2-0.7,13.2-3.1c7.9-4.7,15.6-9.7,23-15"/>
					<path class="st1" d="M513.8,474.3c15.8-2.7,30.6-10.5,41.8-21.9"/>
					<path class="st1" d="M531.9,474.4c3.4,0.5,6.8-0.8,9.9-2.2c8.2-3.7,16-8.2,23.2-13.6"/>
					<path class="st1" d="M553.4,473.3c8-1.8,15.6-5,22.3-9.7"/>
					<path class="st1" d="M573.8,473.3c3.6-1.2,7.2-2.3,10.8-3.5"/>
					<path class="st1" d="M586.4,477.2l10.7-3.8"/>
					<path class="st1" d="M594.8,482.7c2.9-0.5,5.9-0.6,8.9-0.4"/>
					<path class="st1" d="M598.1,490.4c4.2-0.9,8.7-0.5,12.6,1.2"/>
					<path class="st1" d="M612.9,476.4c2,1.4,4.1,2.7,6.1,4.1"/>
					<path class="st1" d="M553.3,499.1c7.4,0.6,14.7,2.5,21.5,5.5"/>
					<path class="st1" d="M562.6,495.3c6.5,0.7,12.8,2.6,18.6,5.6"/>
					<path class="st1" d="M583.6,494.4c2.6,0.9,5.3,1.9,7.9,2.8"/>
				</g>
				<g>
					<path class="st1" d="M463.2,520.2c-11.3-7.7-18.5-22.8-24.4-34.1c-6-11.6-19-23.4-19.2-37.2c-0.3-13.7,12.9-11.9,16.3-12
						c10.5-0.3,8-7.3,10.6-10c3.1-3.2,7.1,0.8,10.6,0.5c6.1-0.5,5.1-3.4,9.5-7.5c2.2-2,3.6-1.6,5.1,0.5c16,22.8-10.6,54.2,52.3,82.8
						c16.2,7.4,13.5,24.6,16.5,39.7C535.6,518.6,486.2,535.9,463.2,520.2L463.2,520.2z"/>
					<path class="st1" d="M449.5,443.8c7.5,72.1,83.7,56.9,90.9,99.1"/>
					<path class="st1" d="M455.9,433.8c1.5,0.5,1.8,2.4,1.8,4c0.1,6.3-0.1,12.6-0.9,18.9"/>
					<path class="st1" d="M463.6,431c2.6,12.4,2.8,25.3,0.5,37.8"/>
					<path class="st1" d="M469.4,433.9c2.1,4,2.4,8.8,2.4,13.4c0.2,10.6,0,21.2-0.2,31.8"/>
					<path class="st1" d="M477.8,465.1c0.1,8.7,1.3,17.3,3.7,25.6"/>
					<path class="st1" d="M484.4,480c1.1,6.6,3.9,12.9,7.9,18.2"/>
					<path class="st1" d="M494.6,489.7c1.4,5.5,4.3,10.5,8.2,14.6"/>
					<path class="st1" d="M506.7,498.1c2.6,4.6,5.6,8.9,8.8,13.1"/>
					<path class="st1" d="M434.8,442.3c2.1,6.4,6.8,12,12.8,15.2"/>
					<path class="st1" d="M428.3,447.9c4.7,8.3,12,15,20.6,19.1"/>
					<path class="st1" d="M427.3,459.1c1.1,3,3.4,5.5,5.9,7.6c6.9,6.1,15.3,10.7,24.2,13.2"/>
					<path class="st1" d="M439.1,479.5c-0.5,1.5,1.1,2.8,2.5,3.5c6.9,3.6,14.2,6.3,21.7,8.2"/>
					<path class="st1" d="M449.3,495.5c4.2,3.2,9.7,4.3,15,4.7s10.7,0.2,15.9,1.2"/>
				</g>
				<g>
					<path class="st1" d="M410.3,582.8c-54.9-13.5-49.5,12.9-68.8,48.3c9.9-22.3,27-74.7-11.2-81.5c-9.4-1.7-18.9-0.2-28.4-2.5
						c-11.9-3-26.7-13.8-26.4-27.4c0.4-14.3,13-16.4,16.5-20c4-4.2,3.7-12.1,9.1-14.3c4.1-1.6,9.6,1.1,12.7-2c1.7-1.7,2.6-8.4,9.3-6
						c6.8,2.4,9.9,12.8,11.7,16.8c2.9,6.2,10.1,14,16.8,39.2c0.4,1.4,3.3,24.6,6.9,15.5c4.9-12.6-7.3-47.7-12.1-56
						c-3.5-6-7-12.6-6.5-19.5c0.5-7,6.9-13.9,13.7-12.2c2.8,0.7,5.5,2.7,8.4,2c3.1-0.8,4.4-4.4,6.8-6.5c3.4-3,9.4-2.2,11.9,1.6
						c3,4.5,3.9,2.7,8.7,0.1c3.8-2,9.2-0.2,11,3.7c2.7,6,1,4.6,9.1,6.4c9.2,1.9,4.1,7.7,8.6,13.1c2.7,3.2,8.9,1.8,11,5.5
						c2,3.4-1.6,8.3,0.7,11.5c1.1,1.5,8.2,4.3,4.5,12.5c-4,8.7-14.4,14-22.5,17.9c-28.6,13.5-34.3,33.8-21.7,30.9
						c8.5-2,25.1-27.8,46.9-33.5c8.3-2.2,19.5,0.3,21.3,8.7c1,4.5-1.1,9.9,1.8,13.4c2.5,3.1,7.5,3.1,10,6.2
						c3.6,4.5-0.5,11.8,2.9,16.5c1.7,2.3,4.9,3.3,6.4,5.8c2.9,4.7-3.2,10.8-8.7,10c-5.6-0.8-4.7-1.4-9.5,3
						C450.1,599.9,435.1,588.9,410.3,582.8L410.3,582.8z"/>
					<path class="st1" d="M383.2,471.8c8,48.7-22.6,112.4-41.8,159.4"/>
					<path class="st1" d="M371.1,467.4c4.1,4.3,7,9.6,8.4,15.4"/>
					<path class="st1" d="M358.9,470.8c8.9,7.8,18.2,16.4,20.9,27.8"/>
					<path class="st1" d="M348,476.9c13,9.2,22.8,22.8,27.3,38"/>
					<path class="st1" d="M350,490.8c11.4,11.6,19.5,26.4,23.1,42.3"/>
					<path class="st1" d="M389.3,484.2c2.7-4.4,6.8-7.9,11.6-9.9"/>
					<path class="st1" d="M390.6,493.5c3.2-5.6,8.7-9.9,15-11.5"/>
					<path class="st1" d="M387.8,512.5c6.3-11.8,18.5-20.3,31.8-22.1"/>
					<path class="st1" d="M306.4,494.7c5,4.3,8.7,10.1,10.4,16.5"/>
					<path class="st1" d="M313.8,491.6c6.5,7.6,11.5,16.5,14.5,26.1"/>
					<path class="st1" d="M321.7,489.8c9.1,10.7,15.4,23.9,18,37.7"/>
					<path class="st1" d="M300.3,500c4.4,3.1,8,7.1,10.7,11.7"/>
				</g>
				<g>
					<path class="st1" d="M-59,453.7c-4.1-10.3-7.3-20.9-12.2-30.9c-10.1-20.6-30.2-35-40.8-55.4c5.7,11.1,35.4,40.6,47.2,42.1
						c34.8,4.4,52-67.5,70-55.5c5,3.4,1.7,13.1,6.9,16.1c3.1,1.8,7.7-0.2,10.4,2.2c3,2.6,1.3,8.1,4.2,10.7c2.8,2.5,8.2,0.7,10.3,3.8
						c2.8,4.1-5.6,21.7-24,26.9C2.2,417-10.3,417.4-19.4,425c-12.9,11,31.9,14.6,54.5-11.6c5-5.8,10.6-13.5,18.2-12.3
						c4.8,0.7,8.5,5.5,8,10.3c-0.2,2.4-1.3,4.6-1.1,7c0.7,7.3,13.1,10.5,11.5,17.7c-0.9,4.1-6.1,6-7.5,9.9c-2,5.6,4.2,10.4,6.8,15.7
						c2.7,5.6-4.2,5.6-6.8,8.5c-2.8,3.2,0.1,8.1-0.3,12.3c-0.3,4.4-4.5,7.8-8.8,8.7c-17,3.3-46.8-24.6-66.1-34.6
						c-6.2-3.2-9,1-5.1,5.9c9.4,11.9,32.4,27,46.5,32.6c3.6,1.5,18.1,5,16.7,14.9c-1.5,9.9-16.1,8.2-18.1,11.4
						c-1.3,2.2,0.9,4.9,0.7,7.5c-0.2,3.8-5.2,5.2-9,5.1c-18.1-0.6-8.3,10.3-13.5,14.9c-7,6.2-12.8-12.1-20.5-9
						c-0.9,0.4-1.7,1-2.6,1.5c-4.4,2.3-16.2-0.3-11.1-20.8C-19.6,491.1-49.4,477.5-59,453.7L-59,453.7z"/>
					<path class="st1" d="M59.6,452.1c-62.8,7.5-138-29-171.6-84.7"/>
					<path class="st1" d="M6.1,375.2c-9.8,23.9-41.4,36.5-65.8,45.2c10.6,38,36.8,75,67.9,99.2"/>
					<path class="st1" d="M7.1,383.3c3.6,0.4,7.4-0.2,10.7-1.7"/>
					<path class="st1" d="M0.6,390.7c8.3,0.5,16.6,0,24.7-1.7"/>
					<path class="st1" d="M-6.8,398.3c10,2.3,20.8,1.4,30.3-2.6"/>
					<path class="st1" d="M-14,404.6c8.6,4.1,18.8,2,28.1-0.2"/>
					<path class="st1" d="M64.5,431.6c-7.2,2.8-13.5,7.9-17.8,14.3"/>
					<path class="st1" d="M57.7,426c-8.9,4.5-16.6,11.1-22.3,19.3"/>
					<path class="st1" d="M55.1,414.1c-12.8,5.7-21.1,17.9-28.9,29.5"/>
					<path class="st1" d="M34.5,421.1c-7.1,5.4-13.3,12.2-18,19.8"/>
					<path class="st1" d="M15.1,432.4c-4.8,3.4-9.7,6.8-14.5,10.2"/>
					<path class="st1" d="M-0.4,436.5c-2.1,1.4-4.2,2.8-6.3,4"/>
					<path class="st1" d="M1.6,451c1.4,4.7,4.3,8.8,8.2,11.8"/>
					<path class="st1" d="M12.2,455.3c2.8,6.5,7.2,12.2,12.7,16.7"/>
					<path class="st1" d="M22.8,457.2c4.6,8.5,10.6,16.3,17.8,22.8"/>
					<path class="st1" d="M34.9,458.6c3.6,8.4,8.9,16,15.6,22.3"/>
					<path class="st1" d="M46.2,460c2.8,5.7,6.9,10.8,11.8,14.7"/>
					<path class="st1" d="M54.6,459.5c1.3,1.9,2.9,3.6,4.8,5"/>
					<path class="st1" d="M-15.3,486.3c8,2.4,16.6,2.8,24.8,1.1"/>
					<path class="st1" d="M-6.4,497.1c8.3,1.4,17,1.1,25.2-1"/>
				</g>
			</g>
		</g>
	</g>
</g>
</svg>
